<svg width="125px" height="125px" viewBox="0 0 150 150" version="1.1" xmlns="http://www.w3.org/2000/svg" xmlns:xlink="http://www.w3.org/1999/xlink" xml:space="preserve" style="fill-rule:evenodd;clip-rule:evenodd;stroke-linejoin:round;stroke-miterlimit:1.41421;"><path d="M62.937,118.272c-0.141,0 -0.285,-0.034 -0.418,-0.106c-0.426,-0.231 -0.584,-0.763 -0.355,-1.189c0.035,-0.067 2.099,-4.105 -0.052,-10.032c-1.353,-3.727 -3.511,-7.468 -5.598,-11.085c-3.271,-5.668 -6.36,-11.022 -5.568,-15.297c0.088,-0.477 0.547,-0.792 1.024,-0.704c0.477,0.088 0.792,0.547 0.704,1.024c-0.674,3.638 2.258,8.719 5.362,14.098c2.125,3.684 4.323,7.492 5.728,11.364c2.442,6.73 0.05,11.277 -0.053,11.467c-0.159,0.293 -0.462,0.46 -0.774,0.46l0,0Z" /><path d="M43.62,105.543c-2.733,0 -12.435,-0.182 -17.771,-2.66c-0.44,-0.204 -0.632,-0.727 -0.427,-1.167c0.204,-0.44 0.727,-0.632 1.167,-0.427c5.754,2.671 17.598,2.494 17.718,2.491c0.486,-0.011 0.885,0.378 0.894,0.864c0.009,0.485 -0.378,0.885 -0.863,0.894c-0.065,0.001 -0.316,0.005 -0.718,0.005l0,0Z" /><path d="M60.635,52.353c-0.299,0 -0.591,-0.153 -0.755,-0.429c-6.376,-10.682 -19.764,-16.65 -19.899,-16.71c-0.444,-0.195 -0.646,-0.713 -0.451,-1.158c0.195,-0.444 0.714,-0.646 1.158,-0.451c0.57,0.25 14.04,6.259 20.701,17.418c0.249,0.417 0.113,0.957 -0.304,1.206c-0.142,0.084 -0.297,0.124 -0.45,0.124l0,0Z" /><path d="M98.79,80.453c-0.44,0 -0.819,-0.329 -0.872,-0.776c-1.816,-15.483 -16.695,-24.998 -16.845,-25.092c-0.411,-0.258 -0.535,-0.801 -0.277,-1.212c0.258,-0.411 0.801,-0.535 1.212,-0.276c0.642,0.403 15.742,10.065 17.656,26.375c0.057,0.482 -0.288,0.918 -0.77,0.975c-0.035,0.004 -0.07,0.006 -0.104,0.006l0,0Z" /><path d="M96.23,98.563c-0.269,0 -0.534,-0.123 -0.706,-0.355c-0.29,-0.389 -0.209,-0.94 0.181,-1.229c12.316,-9.152 17.431,-25.226 17.481,-25.388c0.145,-0.463 0.638,-0.722 1.101,-0.578c0.463,0.144 0.722,0.637 0.578,1.1c-0.211,0.681 -5.326,16.775 -18.112,26.277c-0.157,0.117 -0.341,0.173 -0.523,0.173l0,0Z" /><path d="M84.9,64.629c-2.727,0 -5.882,-0.356 -8.694,-1.571c-0.445,-0.193 -0.65,-0.71 -0.457,-1.156c0.192,-0.446 0.71,-0.651 1.155,-0.458c6.085,2.631 14.329,0.791 14.412,0.772c0.473,-0.109 0.944,0.187 1.053,0.66c0.108,0.473 -0.187,0.944 -0.659,1.053c-0.207,0.048 -3.116,0.7 -6.81,0.7l0,0Z" /><path d="M79.012,30.975c-0.166,0 -0.333,-0.047 -0.482,-0.145c-7.428,-4.888 -15.109,-3.755 -15.185,-3.743c-0.48,0.075 -0.929,-0.252 -1.005,-0.731c-0.076,-0.479 0.25,-0.929 0.729,-1.005c0.339,-0.054 8.409,-1.265 16.427,4.011c0.405,0.267 0.518,0.812 0.251,1.217c-0.169,0.257 -0.449,0.396 -0.735,0.396l0,0Z" /><path d="M48.795,60.199c-0.234,0 -0.468,-0.095 -0.643,-0.28c-0.332,-0.354 -0.307,-0.918 0.046,-1.25c0.355,-0.335 3.83,-3.182 16.247,-0.215c0.472,0.112 0.763,0.587 0.651,1.059c-0.113,0.472 -0.588,0.763 -1.059,0.65c-11.474,-2.741 -14.62,-0.225 -14.651,-0.199c-0.168,0.158 -0.379,0.235 -0.591,0.235l0,0Z" /><path d="M114.83,53.273c-0.356,0 -0.691,-0.218 -0.823,-0.57c-3.93,-10.444 -13.508,-17.513 -13.604,-17.583c-0.392,-0.286 -0.479,-0.835 -0.193,-1.227c0.286,-0.393 0.835,-0.48 1.227,-0.194c0.411,0.298 10.096,7.436 14.215,18.385c0.171,0.454 -0.059,0.961 -0.513,1.132c-0.102,0.038 -0.206,0.057 -0.309,0.057Z" /><path d="M119.977,112.906c-0.301,0 -0.594,-0.154 -0.758,-0.432c-0.247,-0.418 -0.108,-0.957 0.31,-1.204c17.857,-10.552 22.093,-21.45 20.313,-24.681c-0.314,-0.571 -0.661,-1.101 -1.028,-1.662c-1.634,-2.499 -3.487,-5.332 -3.314,-13.094c0.206,-9.208 -1.816,-13.398 -1.837,-13.439c-0.215,-0.434 -0.039,-0.961 0.394,-1.178c0.432,-0.217 0.959,-0.044 1.177,0.389c0.092,0.181 2.24,4.557 2.024,14.267c-0.161,7.217 1.459,9.696 3.027,12.092c0.369,0.564 0.75,1.147 1.097,1.777c1.417,2.572 0.298,6.901 -2.992,11.581c-2.658,3.781 -7.933,9.533 -17.967,15.461c-0.141,0.083 -0.295,0.123 -0.446,0.123l0,0Z" /><path d="M68.259,131.482c-8.887,0 -22.081,-1.604 -35.778,-8.975c-18.562,-9.99 -23.12,-26.577 -26.447,-38.689c-1.172,-4.266 -2.184,-7.951 -3.581,-10.575c-3.295,-6.193 -3.269,-12.056 0.068,-15.682c2.868,-3.115 7.61,-3.885 12.083,-1.962c0.891,0.383 1.304,1.417 0.92,2.309c-0.384,0.892 -1.418,1.303 -2.309,0.92c-3.082,-1.325 -6.264,-0.888 -8.107,1.114c-2.281,2.478 -2.113,6.833 0.449,11.649c1.579,2.969 2.64,6.828 3.867,11.296c3.335,12.14 7.486,27.248 24.723,36.524c13.364,7.192 26.222,8.618 34.671,8.553c6.741,-0.055 11.816,-1.044 14.063,-1.575c-0.107,-3.263 -0.661,-12.083 -3.489,-21.911c-3.239,-11.257 -10.224,-26.209 -25.106,-33.506c-13.713,-6.723 -24.3,-7.324 -30.767,-6.644c-6.977,0.733 -10.791,3.074 -10.828,3.097c-0.822,0.513 -1.906,0.268 -2.422,-0.551c-0.516,-0.819 -0.276,-1.9 0.541,-2.419c0.175,-0.111 4.379,-2.738 12.082,-3.596c6.972,-0.776 18.346,-0.2 32.942,6.957c12.719,6.236 22.043,18.609 26.963,35.781c3.681,12.847 3.629,23.705 3.626,24.161c-0.007,0.768 -0.511,1.443 -1.246,1.666c-0.263,0.08 -6.539,1.959 -16.192,2.054c-0.238,0.002 -0.481,0.004 -0.726,0.004l0,0Z" /><path d="M64.484,77.309c-0.836,0 -1.577,-0.598 -1.729,-1.45c-0.132,-0.746 -3.153,-18.458 4.668,-34.502c4.391,-9.006 14.772,-17.477 24.685,-20.141c5.908,-1.588 11.137,-1.01 15.122,1.671c5.8,3.9 2.605,11.739 2.466,12.071c-0.375,0.895 -1.405,1.317 -2.3,0.942c-0.896,-0.375 -1.318,-1.405 -0.943,-2.3c0.021,-0.05 2.217,-5.508 -1.185,-7.796c-3.938,-2.648 -8.834,-2.11 -12.248,-1.193c-9.016,2.423 -18.452,10.114 -22.437,18.286c-7.308,14.991 -4.396,32.177 -4.366,32.349c0.169,0.956 -0.469,1.867 -1.425,2.036c-0.103,0.019 -0.206,0.027 -0.308,0.027l0,0Z" /><path d="M84.665,129.501c-0.717,0 -1.391,-0.442 -1.651,-1.156c-0.333,-0.911 0.136,-1.921 1.048,-2.254c0.078,-0.028 8.135,-3.046 16.648,-10.878c7.82,-7.195 17.654,-20.067 20.092,-40.533c1.466,-12.302 -1.455,-23.455 -8.683,-33.149c-5.432,-7.286 -11.398,-10.974 -11.458,-11.011c-0.828,-0.505 -1.091,-1.586 -0.586,-2.415c0.504,-0.828 1.583,-1.092 2.413,-0.589c0.263,0.16 6.52,4.008 12.36,11.795c5.397,7.195 11.416,19.244 9.445,35.785c-2.574,21.609 -13.016,35.209 -21.322,42.814c-9.017,8.254 -17.353,11.356 -17.703,11.484c-0.199,0.072 -0.403,0.107 -0.603,0.107l0,0Z" /><path d="M32.327,64.322c-0.37,0 -0.743,-0.116 -1.06,-0.357c-0.774,-0.586 -0.926,-1.689 -0.34,-2.463c0.133,-0.175 3.319,-4.327 9.201,-7.663c5.442,-3.087 14.312,-6.029 25.665,-2.517c0.927,0.287 1.447,1.272 1.16,2.199c-0.287,0.928 -1.271,1.447 -2.199,1.16c-19.415,-6.006 -30.911,8.795 -31.025,8.945c-0.345,0.456 -0.871,0.696 -1.402,0.696Z" /><path d="M13.379,66.86c-0.873,0 -1.63,-0.648 -1.741,-1.536c-0.072,-0.575 -1.621,-14.286 11.187,-32.506c3.804,-5.412 8.658,-8.222 14.427,-8.352c11.409,-0.27 23.753,10.366 31.502,20.394c0.593,0.768 0.452,1.872 -0.316,2.465c-0.768,0.594 -1.873,0.452 -2.466,-0.316c-7.224,-9.348 -18.555,-19.261 -28.641,-19.029c-4.59,0.104 -8.503,2.412 -11.63,6.86c-11.963,17.018 -10.589,29.923 -10.574,30.051c0.114,0.962 -0.571,1.838 -1.532,1.956c-0.072,0.009 -0.145,0.013 -0.216,0.013l0,0Z" /><path d="M47.445,30.46c-0.387,0 -0.776,-0.127 -1.1,-0.388c-0.757,-0.608 -0.878,-1.714 -0.27,-2.471c0.151,-0.188 3.78,-4.637 10.58,-7.249c6.231,-2.393 16.415,-3.642 29.547,4.003c0.839,0.489 1.123,1.565 0.634,2.404c-0.488,0.839 -1.564,1.124 -2.403,0.635c-9.576,-5.575 -18.497,-6.84 -26.517,-3.76c-5.925,2.275 -9.069,6.13 -9.1,6.169c-0.347,0.432 -0.857,0.657 -1.371,0.657l0,0Z" /><path d="M91.947,130.04c-2.541,0 -5.061,-0.185 -7.544,-0.559c-0.573,-0.086 -1.067,-0.45 -1.319,-0.971c-0.254,-0.521 -0.234,-1.133 0.053,-1.637c11.279,-19.826 13.901,-39.687 14.114,-52.857c0.232,-14.317 -2.251,-24.058 -2.276,-24.155c-0.244,-0.939 0.319,-1.899 1.259,-2.143c0.938,-0.244 1.898,0.318 2.143,1.257c0.107,0.41 2.615,10.208 2.391,24.972c-0.198,13.104 -2.704,32.624 -13.306,52.369c17.049,1.631 31.484,-6.327 38.76,-11.387c11.504,-8.002 18.665,-17.736 19.794,-23.217c1.249,-6.071 -0.233,-8.094 -2.109,-10.657c-1.459,-1.992 -3.113,-4.251 -3.419,-8.348c-0.072,-0.971 -0.133,-1.997 -0.196,-3.084c-0.474,-8.074 -1.124,-19.131 -8.167,-22.363c-6.865,-3.151 -14.456,-0.011 -14.532,0.021c-0.894,0.378 -1.925,-0.04 -2.303,-0.935c-0.379,-0.893 0.04,-1.925 0.934,-2.303c0.368,-0.156 9.11,-3.768 17.367,0.021c8.963,4.113 9.684,16.389 10.21,25.353c0.063,1.072 0.123,2.085 0.193,3.028c0.231,3.094 1.398,4.687 2.75,6.533c2.006,2.74 4.279,5.845 2.715,13.443c-1.503,7.303 -10.234,17.746 -21.23,25.394c-11.511,8.006 -24.145,12.225 -36.282,12.225l0,0Z" /><path d="M84.665,129.501c-0.214,0 -0.43,-0.039 -0.64,-0.121c-22.457,-8.783 -37.35,-19.934 -45.889,-27.742c-9.316,-8.519 -13.255,-14.908 -13.418,-15.176c-0.505,-0.829 -0.243,-1.911 0.587,-2.416c0.828,-0.505 1.909,-0.243 2.415,0.585c0.037,0.063 3.917,6.326 12.916,14.529c8.306,7.571 22.797,18.392 44.669,26.945c0.904,0.354 1.35,1.374 0.997,2.278c-0.271,0.694 -0.935,1.118 -1.638,1.118l0.001,0Z" /></svg>
