<svg width="125px" height="125px" viewBox="0 0 150 150" version="1.1" xmlns="http://www.w3.org/2000/svg" xmlns:xlink="http://www.w3.org/1999/xlink" xml:space="preserve" style="fill-rule:evenodd;clip-rule:evenodd;stroke-linejoin:round;stroke-miterlimit:1.41421;"><path d="M70.206,66.867l9.222,0l0,54.674l-9.222,0l0,-54.674Zm-13.231,-5.342c-4.349,0 -7.889,-3.54 -7.889,-7.89c0,-4.35 3.54,-7.888 7.889,-7.888c4.35,0 7.889,3.538 7.889,7.888l0,7.89l-7.889,0Zm27.795,-7.89c0,-4.35 3.541,-7.888 7.89,-7.888c4.35,0 7.889,3.538 7.889,7.888c0,4.35 -3.539,7.89 -7.889,7.89l-7.89,0l0,-7.89Zm0,13.232l7.89,0c7.296,0 13.231,-5.936 13.231,-13.232c0,-7.296 -5.935,-13.23 -13.231,-13.23c-7.295,0 -13.232,5.934 -13.232,13.23l0,7.89l-9.222,0l0,-7.89c0,-7.296 -5.935,-13.23 -13.231,-13.23c-7.296,0 -13.231,5.934 -13.231,13.23c0,7.296 5.935,13.232 13.231,13.232l7.889,0l0,54.674l-12.074,0l0,5.342l44.24,0l0,-5.342l-12.26,0l0,-54.674l0,0Z" /><rect x="52.79" y="132.707" width="44.24" height="5.341" /><rect x="62.803" y="144.265" width="24.213" height="5.342" /><path d="M74.808,0c-28.72,0 -52.084,23.365 -52.084,52.083c0,20.804 12.263,38.789 29.938,47.129l0,15.862l5.341,0l0,-19.385c-1.837,-0.71 -3.624,-1.526 -5.341,-2.454c-14.633,-7.906 -24.596,-23.386 -24.596,-41.152c0,-25.771 20.969,-46.741 46.742,-46.741c25.771,0 46.741,20.97 46.741,46.741c0,17.81 -10.014,33.322 -24.706,41.209c-1.72,0.921 -3.505,1.735 -5.342,2.44l0,19.342l5.342,0l0,-15.812c17.732,-8.316 30.048,-26.332 30.048,-47.179c0,-28.718 -23.365,-52.083 -52.083,-52.083l0,0Z"/></svg>
