<svg width="125px" height="125px" viewBox="0 0 150 150" version="1.1" xmlns="http://www.w3.org/2000/svg" xmlns:xlink="http://www.w3.org/1999/xlink" xml:space="preserve" style="fill-rule:evenodd;clip-rule:evenodd;stroke-linejoin:round;stroke-miterlimit:1.41421;"><path d="M143.752,62.998c1.875,2.125 5.625,0.5 5.5,-2.25c-0.25,-4.625 -1.125,-9.375 -3.25,-13.5c-1.25,-2.5 -3.375,-4.625 -6,-6c1.375,-0.5 2.875,-0.875 4.375,-1.25c1.375,-0.25 2.25,-1.625 2.375,-2.875c0.125,-0.75 -0.125,-1.625 -0.875,-2.375l-0.125,-0.125c-6.5,-6.5 -17.125,-6.25 -24.625,-1.625c-0.875,-0.625 -2,-1.25 -2.875,-1.75c-4.25,-2.25 -9.75,-3.625 -14.5,-3c-6.875,0.875 -12.875,5.375 -17,10.75c-1.625,2.25 1.125,5.75 3.625,4.75c4,-1.5 7.75,-2.25 11.875,-2c0.25,0 0.5,0.125 0.875,0.125c-3,1.25 -5.75,3.25 -7.75,5.75c-3.25,4.25 -4.75,10 -3.5,15.25c0.5,2.25 3.875,3.25 5.5,1.375c1.75,-2 3.625,-3.875 5.75,-5.5c0,0 0.25,-0.125 0.375,-0.25c0.125,-0.125 0.375,-0.25 0.5,-0.375c0.5,-0.375 1,-0.625 1.375,-1c0.875,-0.625 1.875,-1.125 2.75,-1.5c0.125,0 0.5,-0.25 0.5,-0.25c0.25,-0.125 0.5,-0.125 0.75,-0.25c0.5,-0.125 1,-0.25 1.625,-0.375l1.375,0c0,0 0.375,0 0.5,0.125c0.125,0 0.25,0 0.375,0.125c-0.125,0.125 -0.375,0.375 -0.5,0.625c-8,11.125 -12,24.375 -13.375,37.875c-0.5,4.75 -0.625,9.625 -0.25,14.375c-5.625,-1.625 -11.375,-2.75 -17.125,-3.25c-3.125,-0.25 -6.25,-0.5 -9.375,-0.375c3.75,-22.75 -0.5,-46.625 -11.5,-66.875l1.5,0.75c0.625,0.25 1.25,0.625 1.75,1c1,0.625 2,1.125 2.875,1.875c0.5,0.375 0.875,0.625 1.375,1c0.25,0.125 0.5,0.375 0.625,0.5c0,0 0.125,0 0.125,0.125c0.125,0.125 0.25,0.125 0.375,0.25c1.625,1.25 3.25,2.75 4.75,4.125c1.5,1.5 3,3 4.375,4.625c1.5,1.875 4.875,0.875 5.5,-1.375c0.875,-3.875 0.625,-8.125 -0.25,-12c-1.625,-7.125 -6.5,-13 -12.75,-16.625c-2.5,-1.5 -5.25,-2.5 -8.125,-3.25c1.375,-0.75 2.875,-1.25 4.375,-1.625c1.25,-0.25 2.375,-0.375 3.875,-0.375c1.75,0 2.75,0.125 4.125,0.375c2.375,0.375 4.75,1.125 7,2c0.375,0.125 0.75,0.25 1.25,0.5c0.125,0 0.25,0.125 0.375,0.125c0.25,0.125 0.625,0.25 0.875,0.375c2.875,1.375 6.125,-1.5 4.5,-4.5c-3.875,-6.625 -10.625,-12.125 -17.875,-14.25c-10.875,-3.25 -23.25,1.75 -30.25,10.375c-3.375,-3.375 -7.375,-6 -11.875,-7.5c-6.625,-2.125 -14.75,-0.375 -20.75,3.125c-0.375,0.125 -0.625,0.375 -0.875,0.625c-0.5,0.375 -0.75,0.875 -0.875,1.5c-0.125,0.375 -0.125,0.625 -0.125,1c0,1.25 0.625,2.125 1.5,2.625c0.625,0.375 1.25,0.625 2,0.625c3.25,0.25 6,1.25 8.75,2.75c-0.875,0.25 -1.625,0.5 -2.375,0.875c-2.875,1.25 -5.75,2.75 -8,5c-1.625,1.625 -3,3.625 -4,5.75c-3,6 -4.5,13.125 -4.875,19.75c-0.125,3.25 4.5,4.375 6.125,1.625c0.25,-0.375 0.5,-0.875 0.75,-1.25c0.625,-1 1.625,-2.375 2.125,-3c2.375,-3 5.125,-6 8.5,-8c2.375,-1.375 5,-2.25 7.75,-2.75c-1.875,4.75 -2.625,10 -1.75,15c0.75,4.75 3.25,9.25 5.875,13.125c1.5,2.25 3.25,4.375 5.125,6.25c2.375,2.375 5.875,0 5.5,-3c0,0 -0.125,-1 -0.125,-1.25c-0.125,-1.625 -0.125,-3.25 -0.125,-4.875c0,-1 0.125,-2 0.25,-3c0,-0.125 0,-0.375 0,-0.5c0,0 0.125,-0.5 0.125,-0.625c0.125,-0.625 0.25,-1.375 0.375,-2c0.25,-1.25 0.625,-2.375 1,-3.5c0.25,-0.625 0.375,-1.25 0.625,-1.75l0,-0.125c0,0 0.125,-0.125 0.125,-0.25c0.125,-0.375 0.375,-0.75 0.625,-1.125c0.875,-1.75 1.75,-3.125 2.875,-4.5c0.125,0.375 0.375,0.75 0.5,1.125c0,0.125 0.125,0.25 0.125,0.375c0.125,0.375 0.25,0.75 0.5,1.125c0.375,0.875 0.75,1.875 1,2.75c0.75,2.125 1.5,4.375 2.125,6.5c3.625,12.375 4.875,25.125 3.5,38.125c-0.5,5.25 -1.625,10.5 -3.125,15.5c-16,4 -30.875,12.375 -41.625,24.875c-3.125,3.75 -5.875,7.75 -8.125,12.125c-0.75,1.625 -0.375,3.5 1.125,4.5c1.5,0.875 3.625,0.375 4.5,-1.125c5.5,-10.75 14,-19.125 24.375,-25.375c11.375,-6.875 24.625,-10.5 37.875,-11.25c11.375,-0.625 23,0.875 33.75,4.5c0.125,0 0.125,0 0.25,0.125c2.125,0.75 4.25,1.625 6.375,2.5c11.25,5 21.5,12.75 28.5,22.5c1.625,2.25 3.125,4.75 4.375,7.25c0.75,1.625 3,2 4.5,1.125c1.625,-0.875 2,-2.875 1.125,-4.5c-8.5,-16.5 -23.75,-28 -40.875,-34.375c-0.125,-1 -0.125,-1.875 -0.25,-2.875c-0.25,-4.375 -0.125,-8.75 0.25,-13.125c0.25,-2.875 0.5,-4.75 1.125,-7.75c0.625,-3.125 1.375,-6.25 2.375,-9.375c2,-6.375 5,-12.5 9,-17.875c1.25,1.875 1.75,3.5 2.375,5.875c0,0.25 0.125,0.625 0.125,0.875c0,0 0,0.375 0.125,0.5c0,0.5 0.125,0.875 0.125,1.375c0,0.875 0.125,1.75 0,2.75c0,0.625 -0.125,1.25 -0.125,1.875c-0.375,3 3,5.5 5.5,3c3.375,-3.375 6.375,-8 7.375,-12.75c0.5,-2.375 0.375,-4.875 0,-7.25c3.125,1.375 6.375,4.25 9.25,7.375l0,0Zm-104.25,-24.625c-3.75,4.875 -5.75,11.125 -6.375,17.375c-1.5,-2.5 -2.75,-5.25 -3.375,-8.125c-0.25,-1 -0.25,-1.5 -0.25,-2.75c0,-1.125 0.125,-2.375 0.25,-3.5c0.125,-1.125 0.5,-2.25 0.75,-3.375c0.125,-0.375 0.25,-0.875 0.375,-1.25c0,-0.125 0.375,-1.125 0.375,-1c0.25,-0.625 0.625,-1.125 0.875,-1.75c0.125,-0.25 0.75,-1.125 0.75,-1.125c0.25,-0.25 0.375,-0.5 0.625,-0.625c2.375,-1.875 0.25,-5.5 -2.25,-5.5c-5.75,-0.125 -11.875,1.25 -16.875,4c-2,1.125 -3.875,2.625 -5.625,4.25c0.125,-0.25 0.125,-0.625 0.25,-0.875c0.125,-0.5 0.375,-1 0.5,-1.5c0,0 0.125,-0.5 0.25,-0.5c0.125,-0.25 0.25,-0.375 0.25,-0.625c0.375,-0.875 0.875,-1.75 1.375,-2.625c0.25,-0.375 0.5,-0.875 0.875,-1.25l0.125,-0.125c0.125,-0.25 0.375,-0.375 0.5,-0.625c0.25,-0.375 0.625,-0.75 1,-1c0.125,-0.125 0.25,-0.25 0.375,-0.375l0.125,-0.125c0,0 0.125,0 0.125,-0.125c1.25,-0.875 2.625,-1.625 4.125,-2.375c1,-0.5 2.25,-0.875 3.375,-1.125c0.5,-0.125 1,-0.25 1.625,-0.375l3.5,0c1,0 1.875,-0.25 2.5,-0.875c1,-1 1.375,-2.75 0.5,-4c-2.25,-3.125 -5.375,-5.5 -8.75,-7.125c2.25,-0.25 4.625,-0.25 7,0.5c3,0.875 5.875,3 8.125,5c0.875,0.75 1.75,1.625 2.5,2.5c0.25,0.375 1.75,2.125 0.625,0.625c0.75,1 1.5,1.625 2.75,1.625c1,0 2.375,-0.625 2.75,-1.625c0.25,-0.5 0.625,-1.125 0.875,-1.625c0.125,-0.25 0.375,-0.5 0.5,-0.75c0.125,-0.125 0.375,-0.5 0.5,-0.625c0.5,-0.625 1.125,-1.25 1.625,-1.875c0.625,-0.625 1.375,-1.25 2.125,-1.875c0,0 0.375,-0.25 0.5,-0.375c0.25,-0.125 0.5,-0.375 0.75,-0.5c0.625,-0.375 1.25,-0.75 1.875,-1.125c2.5,-1.375 5.125,-2.25 8.25,-2.75c2.875,-0.5 5.5,-0.375 8,0.375c1.375,0.375 2.25,0.75 3.125,1.125c1.125,0.5 2.125,1.125 3.125,1.875c-2.5,-0.375 -5.125,-0.5 -7.75,-0.25c-3.75,0.5 -6.875,1.875 -10.125,3.75c-2,1.125 -4.125,2.625 -5,4.875c-0.625,1.75 0.25,3.875 1.875,4.625c0.875,0.375 1.625,0.5 2.5,0.625c0.25,0 0.5,0 0.75,0.125c0.125,0 0.25,0 0.375,0.125c1,0.125 2.125,0.375 3.125,0.625c0.625,0.125 1.375,0.375 2,0.625c0.25,0.125 0.625,0.25 0.875,0.375c0.25,0.125 0.375,0.125 0.625,0.25c-0.25,-0.125 -0.25,-0.125 0.125,0.125c1.5,0.625 3,1.5 4.5,2.5c2.875,2 5.375,5 6.875,8.375c0.625,1.25 1,3 1.25,4.5c-3,-2.75 -6.375,-5.375 -9.875,-7.375c-4.25,-2.5 -9.25,-4.375 -14.25,-4.125c-6.25,0 -11.125,4 -14.75,8.75Zm26.75,65.875c-3,0.25 -6,0.625 -8.875,1.125c5.625,-22.25 3.125,-46.5 -6.25,-67.375c-0.125,-0.375 -0.375,-0.75 -0.5,-1.125c0.125,-0.125 0.375,-0.125 0.5,-0.25l0.25,0c0.5,-0.25 1.125,-0.375 1.75,-0.5c0.75,1.125 1.375,2.25 2.125,3.375c0.75,1.375 1.5,2.75 2.25,4.125c0.375,0.875 0.875,1.625 1.25,2.5c0.25,0.5 0.375,0.875 0.625,1.375c0.125,0.25 0.25,0.5 0.375,0.75c0,0.125 0.25,0.5 0.25,0.625c4.5,10.875 7.25,22.375 7.875,34c0.125,7.125 -0.375,14.25 -1.625,21.375Zm63.375,-57.75c-3.25,-0.625 -5.375,3 -3.125,5.5c-0.125,-0.125 -0.25,-0.25 -0.25,-0.375c0,0.125 0.125,0.25 0.25,0.25c0.125,0.125 0.125,0.25 0.25,0.375c-0.125,-0.375 0.25,0.75 0.375,1c0.375,1.125 0.625,2.25 0.75,3.375c0.125,0.875 0.25,1.75 0.25,2.625c0,0.875 0,1 -0.125,1.625c-0.125,0.625 -0.25,1.25 -0.5,1.75c-1.25,-5.625 -4.375,-10.875 -9.625,-13.5c-6.125,-3 -12.625,-0.25 -17.875,3.875c0.75,-1.375 1.75,-2.375 2.875,-3.375c0.875,-0.75 2.125,-1.375 3.25,-2c-0.125,0.125 0.625,-0.25 0.625,-0.25c0.25,-0.125 0.625,-0.25 0.875,-0.25c0.625,-0.25 1.25,-0.375 1.875,-0.5c0.25,-0.125 0.625,-0.125 0.875,-0.125c0.125,0 0.375,0 0.5,-0.125c0.5,0 0.875,0 1.375,-0.125c2.375,-0.75 3.5,-3.5 2.125,-5.625c-1.5,-2.5 -5.125,-4 -7.75,-4.875c-1.25,-0.375 -2.625,-0.625 -4.125,-0.75c0.625,-0.25 1.375,-0.375 2.125,-0.5c-0.5,0.125 0.75,0 0.875,-0.125c0.5,0 1,0 1.5,0c1.125,0 2.375,0.375 3.5,0.625c2.125,0.5 3.625,1 5.125,1.75c0.625,0.25 1.125,0.625 1.75,1c0.125,0.125 0.25,0.125 0.375,0.25c0.125,0.125 0.375,0.25 0.375,0.375c0.25,0.25 0.625,0.625 0.875,0.875c1.125,1.5 3.375,1 4.625,0c0,0 0.125,0 0.125,-0.125c0.125,0 0.125,-0.125 0.25,-0.125c0.875,-0.625 1.75,-1.125 2.75,-1.625c2.25,-1.125 5,-1.75 7.625,-1.625c0.375,0 0.75,0.125 1.125,0.125c-2.125,0.875 -4.25,1.875 -6.25,2.875c-3,1.5 -1.5,6.125 1.625,6.125c0.25,0 1.125,0.125 1.125,0.125c1.25,0.25 2.5,0.5 3.625,1c2.75,1 4.125,2.625 5.25,4.875c0,0.125 0,0.125 0.125,0.125c0,0 0,0.125 0.125,0.25c0,0.125 0.125,0.25 0.125,0.5c-3.625,-2.375 -7.5,-4.375 -11.625,-5.25Zm-3.5,5.125c-0.125,-0.125 -0.25,-0.25 0,0Z" style="stroke:#fff;stroke-width:2.0px;"/></svg>
