<?xml version="1.0" encoding="UTF-8"?>
<svg width="209.13mm" height="49.093mm" version="1.1" viewBox="0 0 209.13 49.093" xmlns="http://www.w3.org/2000/svg">
<g transform="translate(0 -3.754)">
<path d="m22.564 52.799c-1.5518-0.17689-2.2513-0.28504-3.2336-0.49993-8.3886-1.8351-15.299-8.0197-18.048-16.152-0.89418-2.6455-1.2788-4.9889-1.2821-7.8105-0.0033845-2.8499 0.35239-5.0876 1.2357-7.7747 1.2276-3.7344 3.3788-7.1422 6.2772-9.9439 2.0014-1.9346 3.8162-3.2095 6.2951-4.4223 2.3265-1.1383 4.5815-1.8524 7.1176-2.2541 1.4197-0.22489 5.6308-0.25536 6.9612-0.050383 6.3907 0.98461 11.959 4.1535 15.854 9.0234 2.8809 3.6012 4.5897 7.6427 5.2583 12.437 0.16329 1.1708 0.15957 4.7158-0.0062 5.9201-0.60059 4.3627-2.1979 8.3184-4.7209 11.691-1.0069 1.3459-2.9863 3.4038-4.2582 4.4268-3.7857 3.0451-8.3119 4.9-13.108 5.3718-0.95113 0.09356-3.6465 0.11685-4.3424 0.03753zm5.1241-2.8796c2.3234-0.33842 4.3785-0.97919 6.517-2.032 6.5783-3.2385 11.101-9.5312 12.036-16.745 0.21983-1.6965 0.19896-4.3699-0.0472-6.0466-1.2744-8.6804-7.645-15.772-16.168-17.999-3.9749-1.0383-8.3961-0.87646-12.387 0.45341-8.9076 2.968-14.925 11.328-14.925 20.736 0 3.3574 0.72403 6.5084 2.1833 9.5019 3.401 6.9766 10.027 11.557 17.766 12.281 1.2645 0.11833 3.6736 0.04607 5.0246-0.15071zm-4.4506-6.0108c-1.5292-0.21588-2.6922-0.69378-3.0279-1.2442-0.16884-0.27685-0.18213-0.60574-0.18305-4.5271-7.89e-4 -3.5108-0.02563-4.2758-0.14613-4.5069-0.07982-0.15305-2.1278-2.29-4.5511-4.7487-2.6472-2.6859-4.515-4.66-4.679-4.9453-0.4525-0.78693-0.34076-1.3871 0.41716-2.2409l0.41956-0.47261h0.69754c0.55962 0 0.75959 0.04362 1.0114 0.22061 0.17262 0.12134 1.931 1.8162 3.9074 3.7664 1.9765 1.9502 3.8841 3.7532 4.2392 4.0065 2.1686 1.5475 4.0548 1.6035 6.1942 0.18405 0.44064-0.29236 1.8196-1.5659 3.7356-3.4499 1.6704-1.6426 3.4666-3.3783 3.9914-3.8571l0.95424-0.8706h0.69715c0.69609 0 0.69777 7.15e-4 1.0994 0.43636 0.81906 0.88858 0.9344 1.5671 0.40874 2.4047-0.16986 0.27065-2.2925 2.4845-4.717 4.9197-3.7366 3.7531-4.4246 4.4882-4.5162 4.8256-0.06962 0.2564-0.10827 1.8731-0.10863 4.5443l-6.02e-4 4.1464-0.24458 0.29067c-0.30196 0.35885-1.2235 0.78197-2.1169 0.97194-0.85979 0.18283-2.6808 0.25924-3.4821 0.14612zm0.09242-15.017c-2.846-1.0553-3.5234-4.8389-1.1958-6.6788 1.9694-1.5567 4.876-0.8809 5.936 1.3802 0.23395 0.49905 0.2647 0.68604 0.2647 1.6094 0 0.92523-0.03049 1.1098-0.26666 1.6136-0.37026 0.78997-1.0715 1.5063-1.8495 1.8893-0.84375 0.41538-2.0595 0.49375-2.8888 0.18623zm-3.4742-8.9279c-0.14453-0.05857-2.8657-3.7019-3.0234-4.0479-0.13233-0.29043-0.0029-0.58443 0.36299-0.82413 0.4552-0.29826 0.69677-0.08031 2.2683 2.0466 1.5315 2.0727 1.6421 2.3089 1.2597 2.6913-0.18565 0.18565-0.58724 0.24771-0.86764 0.13408zm9.8262-0.15284c-0.11158-0.11976-0.20287-0.32798-0.20287-0.46271 0-0.3067 2.828-4.1292 3.1754-4.2919 0.48656-0.22801 1.1062 0.31338 0.94386 0.82472-0.03619 0.11403-0.73241 1.0939-1.5472 2.1775-1.4226 1.8921-1.4949 1.9702-1.8238 1.9702-0.22419 0-0.41255-0.07522-0.54535-0.21775zm-4.9787-1.4737c-0.18876-0.18876-0.19899-0.33166-0.19899-2.7787v-2.5797l0.26216-0.20622c0.14419-0.11342 0.33963-0.20621 0.43432-0.20621 0.09469 0 0.29013 0.0928 0.43432 0.20621l0.26216 0.20622v2.5797c0 2.447-0.01024 2.5899-0.19899 2.7787-0.11055 0.11055-0.33166 0.19899-0.49748 0.19899s-0.38693-0.08844-0.49748-0.19899z" fill="#d46a43" stroke-width=".099497"/>
<g transform="translate(0 .17929)" fill="#939393" stroke-width=".26458">
<g aria-label="Coaching Pro">
<path d="m66.46 26.254q2.5964 0 4.2446-2.0546l2.2578 2.3255q-2.6868 3.0254-6.3444 3.0254-3.635 0-6.0057-2.3029-2.3481-2.3029-2.3481-5.8025 0-3.5221 2.3932-5.8702 2.4158-2.3481 5.8928-2.3481 3.8834 0 6.5024 2.9577l-2.19 2.4836q-1.6708-2.0772-4.1543-2.0772-1.9868 0-3.4092 1.3095-1.3998 1.2869-1.3998 3.4996 0 2.19 1.3321 3.5221t3.2286 1.3321z"/>
<path d="m77.634 23.296q0 1.4901 0.83538 2.4384 0.85796 0.92569 2.1675 0.92569 1.3321 0 2.1675-0.92569 0.85796-0.94827 0.85796-2.4384t-0.85796-2.4384q-0.83538-0.94827-2.1675-0.94827-1.3095 0-2.1675 0.94827-0.83538 0.94827-0.83538 2.4384zm9.4375 0q0 2.6416-1.8288 4.4478t-4.6059 1.8062q-2.7545 0-4.5833-1.8062-1.8288-1.8062-1.8288-4.4478 0-2.6416 1.8288-4.4478 1.8288-1.8288 4.5833-1.8288 2.7771 0 4.6059 1.8288 1.8288 1.8062 1.8288 4.4478z"/>
<path d="m99.883 29.37h-3.1835v-1.4676q-1.3095 1.6482-3.2512 1.6482-1.9191 0-3.2286-1.1063-1.3095-1.1289-1.3095-2.9803 0-1.874 1.3547-2.7996t3.7028-0.92569h2.5287v-0.06773q0-1.9417-2.0546-1.9417-0.88053 0-1.874 0.36124-0.97084 0.33867-1.6482 0.85796l-1.5127-2.19q2.3932-1.7385 5.4638-1.7385 2.2126 0 3.6124 1.1063 1.3998 1.1063 1.3998 3.4996zm-3.4092-4.6284v-0.58702h-2.1223q-2.032 0-2.032 1.2644 0 0.65476 0.47413 1.016 0.49671 0.33867 1.3998 0.33867t1.5804-0.54187q0.69991-0.56444 0.69991-1.4901z"/>
<path d="m108.8 26.547q1.6933 0 3.048-1.6933l2.0094 2.2578q-2.3481 2.4384-5.08 2.4384-2.7319 0-4.6284-1.7159-1.874-1.7385-1.874-4.5156 0-2.7996 1.8965-4.5381 1.9191-1.7611 4.5381-1.7611 1.3095 0 2.6416 0.54187 1.3547 0.54187 2.3707 1.603l-1.7611 2.3029q-0.58702-0.69991-1.445-1.0837-0.83538-0.38382-1.6708-0.38382-1.3321 0-2.3029 0.88054-0.94827 0.85796-0.94827 2.4158 0 1.5353 0.94827 2.3932 0.97085 0.85796 2.2578 0.85796z"/>
<path d="m119.5 22.822v6.5476h-3.3867v-16.753h3.3867v5.9605q1.5353-1.5579 3.4318-1.5579 1.9191 0 3.2286 1.3547 1.3095 1.3547 1.3095 3.6124v7.3829h-3.3867v-6.6379q0-2.7996-2.0546-2.7996-1.016 0-1.7836 0.74507-0.74507 0.72249-0.74507 2.1449z"/>
<path d="m133.92 29.37h-3.3867v-12.147h3.3867zm-3.1157-13.682q-0.56444-0.58702-0.56444-1.4224t0.56444-1.3998q0.58703-0.58702 1.4224-0.58702 0.83537 0 1.3998 0.58702 0.58702 0.56444 0.58702 1.3998t-0.58702 1.4224q-0.56445 0.56444-1.3998 0.56444-0.83538 0-1.4224-0.56444z"/>
<path d="m140.53 22.596v6.7733h-3.3867v-12.147h3.3867v1.3547q1.5353-1.5579 3.4544-1.5579 1.9191 0 3.206 1.3547 1.3095 1.3547 1.3095 3.6124v7.3829h-3.3867v-6.8637q0-2.7996-2.0546-2.7996-1.016 0-1.7836 0.74507-0.74507 0.72249-0.74507 2.1449z"/>
<path d="m160.08 23.048q0-1.4676-0.8128-2.3029-0.8128-0.83538-2.0094-0.83538-1.1966 0-2.0772 0.83538-0.85796 0.83538-0.85796 2.2804 0 1.445 0.83538 2.3481 0.85796 0.88053 2.0772 0.88053t2.032-0.88053 0.8128-2.3255zm0.47414 4.2672q-1.603 1.7836-3.9963 1.7836-2.3707 0-4.0188-1.603-1.6256-1.6256-1.6256-4.3124 0-2.7093 1.6708-4.4252 1.6933-1.7385 3.8608-1.7385t3.5899 1.7836v-1.603h3.3867v10.589q0 1.6256-0.56445 2.89-0.56444 1.2644-1.5127 1.9868-1.874 1.4901-4.4252 1.4901-1.3547 0-2.7771-0.45156-1.3998-0.42898-2.461-1.2418l1.3095-2.5513q1.6708 1.2644 3.5221 1.2644 1.874 0 2.9577-0.92569 1.0837-0.92569 1.0837-2.9351z"/>
<path d="m178.52 13.588q3.635 0 5.2832 1.4224 1.6708 1.3998 1.6708 4.3349 0 2.9125-1.7159 4.2672-1.6933 1.3547-5.1929 1.3547h-2.0997v4.4027h-3.5221v-15.782zm0.31609 8.3312q1.7611 0 2.3932-0.69991 0.63218-0.72249 0.63218-2.0772 0-1.3772-0.83538-1.9417-0.8128-0.58702-2.5513-0.58702h-2.0094v5.3058z"/>
<path d="m194.29 20.203q-1.5127 0-2.2578 1.0837-0.74507 1.0612-0.74507 2.8222v5.2606h-3.3867v-12.147h3.3867v1.603q0.65476-0.74507 1.6256-1.2644 0.99343-0.51929 2.0094-0.54187l0.0226 3.1835z"/>
<path d="m199.7 23.296q0 1.4901 0.83538 2.4384 0.85795 0.92569 2.1675 0.92569 1.3321 0 2.1675-0.92569 0.85795-0.94827 0.85795-2.4384t-0.85795-2.4384q-0.83538-0.94827-2.1675-0.94827-1.3095 0-2.1675 0.94827-0.83538 0.94827-0.83538 2.4384zm9.4375 0q0 2.6416-1.8288 4.4478t-4.6059 1.8062q-2.7545 0-4.5833-1.8062t-1.8288-4.4478q0-2.6416 1.8288-4.4478 1.8288-1.8288 4.5833-1.8288 2.7771 0 4.6059 1.8288 1.8288 1.8062 1.8288 4.4478z"/>
</g>
<g aria-label="A THEME FOR COACHES BY BRANDID">
<path d="m63.381 43.847h-0.79961l-0.55328-1.5727h-2.4405l-0.55328 1.5727h-0.76171l2.054-5.6427h1.0005zm-1.5841-2.2169-0.98909-2.7702-0.99288 2.7702z"/>
<path d="m70.991 38.871h-2.0161v4.9758h-0.75034v-4.9758h-2.0161v-0.66697h4.7825z"/>
<path d="m76.073 43.847h-0.75034v-2.7626h-2.8157v2.7626h-0.75034v-5.6427h0.75034v2.2131h2.8157v-2.2131h0.75034z"/>
<path d="m81.31 43.847h-3.7176v-5.6427h3.7176v0.66697h-2.9673v1.5462h2.9673v0.66697h-2.9673v2.0957h2.9673z"/>
<path d="m87.529 43.847h-0.75034v-4.8621l-1.5689 3.3083h-0.44717l-1.5575-3.3083v4.8621h-0.70108v-5.6427h1.0232l1.5045 3.1416 1.4552-3.1416h1.0421z"/>
<path d="m92.77 43.847h-3.7176v-5.6427h3.7176v0.66697h-2.9673v1.5462h2.9673v0.66697h-2.9673v2.0957h2.9673z"/>
<path d="m100.3 38.871h-2.8536v1.5916h2.4519v0.66697h-2.4519v2.7171h-0.75034v-5.6427h3.6039z"/>
<path d="m105.36 38.852q0.34485 0.37896 0.52675 0.92845 0.18569 0.54949 0.18569 1.2468t-0.18948 1.2506q-0.18569 0.54949-0.52296 0.91708-0.34865 0.38275-0.82614 0.57602-0.4737 0.19327-1.0838 0.19327-0.59496 0-1.0838-0.19706-0.48507-0.19706-0.82614-0.57223-0.34106-0.37517-0.52675-0.92087-0.1819-0.5457-0.1819-1.2468 0-0.68971 0.1819-1.2354 0.1819-0.54949 0.53054-0.93982 0.33349-0.37138 0.82614-0.56844 0.49644-0.19706 1.08-0.19706 0.60634 0 1.0876 0.20085 0.48507 0.19706 0.82235 0.56465zm-0.0682 2.1752q0-1.099-0.49265-1.694-0.49264-0.59876-1.3453-0.59876-0.86024 0-1.3529 0.59876-0.48886 0.59497-0.48886 1.694 0 1.1104 0.50022 1.7015 0.50023 0.58739 1.3415 0.58739 0.8413 0 1.3377-0.58739 0.50023-0.59118 0.50023-1.7015z"/>
<path d="m111.93 43.847h-0.97393l-1.8872-2.2434h-1.0573v2.2434h-0.75034v-5.6427h1.5803q0.5116 0 0.85266 0.06821 0.34107 0.06442 0.61392 0.23496 0.30695 0.19327 0.47749 0.48886 0.17432 0.2918 0.17432 0.74276 0 0.61013-0.30696 1.0232-0.30696 0.40928-0.84508 0.6177zm-1.7546-4.0549q0-0.24254-0.0872-0.42822-0.0834-0.18948-0.28043-0.31833-0.16295-0.1099-0.38654-0.15158-0.22359-0.04548-0.52676-0.04548h-0.88297v2.1298h0.75792q0.35622 0 0.62149-0.06063 0.26528-0.06442 0.45097-0.23496 0.17053-0.15916 0.25011-0.3638 0.0834-0.20843 0.0834-0.52676z"/>
<path d="m119.74 43.438q-0.20843 0.09095-0.37896 0.17053-0.16674 0.07958-0.43959 0.16674-0.23117 0.072-0.50402 0.12127-0.26906 0.05305-0.59497 0.05305-0.61391 0-1.1179-0.17053-0.50023-0.17432-0.87161-0.54191-0.3638-0.36001-0.56844-0.91329-0.20464-0.55707-0.20464-1.2923 0-0.69729 0.19706-1.2468 0.19706-0.54949 0.56844-0.92845 0.36001-0.36759 0.86782-0.56086 0.5116-0.19327 1.1331-0.19327 0.45475 0 0.90572 0.1099 0.45475 0.1099 1.008 0.38654v0.89056h-0.0568q-0.46612-0.39033-0.92467-0.56844-0.45854-0.17811-0.9815-0.17811-0.42823 0-0.77308 0.14022-0.34107 0.13643-0.61013 0.42822-0.26148 0.28422-0.40928 0.72002-0.144 0.43202-0.144 1.0005 0 0.59497 0.15916 1.0232 0.16296 0.42822 0.41686 0.69729 0.26527 0.28043 0.6177 0.41686 0.35623 0.13264 0.75035 0.13264 0.54191 0 1.0156-0.18569t0.88677-0.55707h0.053z"/>
<path d="m125.02 38.852q0.34486 0.37896 0.52676 0.92845 0.18569 0.54949 0.18569 1.2468t-0.18948 1.2506q-0.18569 0.54949-0.52297 0.91708-0.34864 0.38275-0.82613 0.57602-0.4737 0.19327-1.0838 0.19327-0.59496 0-1.0838-0.19706-0.48507-0.19706-0.82614-0.57223-0.34106-0.37517-0.52675-0.92087-0.1819-0.5457-0.1819-1.2468 0-0.68971 0.1819-1.2354 0.1819-0.54949 0.53054-0.93982 0.33349-0.37138 0.82614-0.56844 0.49643-0.19706 1.08-0.19706 0.60634 0 1.0876 0.20085 0.48507 0.19706 0.82234 0.56465zm-0.0682 2.1752q0-1.099-0.49265-1.694-0.49265-0.59876-1.3453-0.59876-0.86024 0-1.3529 0.59876-0.48885 0.59497-0.48885 1.694 0 1.1104 0.50022 1.7015 0.50023 0.58739 1.3415 0.58739 0.8413 0 1.3377-0.58739 0.50023-0.59118 0.50023-1.7015z"/>
<path d="m131.37 43.847h-0.79961l-0.55328-1.5727h-2.4405l-0.55329 1.5727h-0.76171l2.054-5.6427h1.0004zm-1.584-2.2169-0.98909-2.7702-0.99288 2.7702z"/>
<path d="m136.58 43.438q-0.20843 0.09095-0.37896 0.17053-0.16674 0.07958-0.43959 0.16674-0.23117 0.072-0.50402 0.12127-0.26906 0.05305-0.59497 0.05305-0.61391 0-1.1179-0.17053-0.50023-0.17432-0.87161-0.54191-0.3638-0.36001-0.56844-0.91329-0.20464-0.55707-0.20464-1.2923 0-0.69729 0.19706-1.2468 0.19706-0.54949 0.56844-0.92845 0.36001-0.36759 0.86782-0.56086 0.5116-0.19327 1.1331-0.19327 0.45475 0 0.90572 0.1099 0.45475 0.1099 1.008 0.38654v0.89056h-0.0568q-0.46612-0.39033-0.92467-0.56844-0.45854-0.17811-0.9815-0.17811-0.42823 0-0.77308 0.14022-0.34107 0.13643-0.61013 0.42822-0.26148 0.28422-0.40928 0.72002-0.144 0.43202-0.144 1.0005 0 0.59497 0.15916 1.0232 0.16296 0.42822 0.41686 0.69729 0.26527 0.28043 0.6177 0.41686 0.35623 0.13264 0.75035 0.13264 0.54191 0 1.0156-0.18569t0.88677-0.55707h0.053z"/>
<path d="m141.97 43.847h-0.75035v-2.7626h-2.8157v2.7626h-0.75034v-5.6427h0.75034v2.2131h2.8157v-2.2131h0.75035z"/>
<path d="m147.2 43.847h-3.7176v-5.6427h3.7176v0.66697h-2.9673v1.5462h2.9673v0.66697h-2.9673v2.0957h2.9673z"/>
<path d="m152.5 42.236q0 0.3297-0.15537 0.65181-0.15158 0.32212-0.42823 0.5457-0.30316 0.24253-0.70865 0.37896-0.4017 0.13643-0.97014 0.13643-0.61013 0-1.099-0.11369-0.48507-0.11369-0.98908-0.33728v-0.93982h0.053q0.42823 0.35622 0.98909 0.54949t1.0535 0.19327q0.69729 0 1.0838-0.26148 0.39032-0.26148 0.39032-0.69729 0-0.37517-0.18569-0.55328-0.1819-0.17811-0.55707-0.27664-0.28422-0.07579-0.6177-0.12506-0.3297-0.04926-0.70108-0.12506-0.75034-0.15916-1.1141-0.54191-0.36002-0.38654-0.36002-1.0042 0-0.70866 0.59876-1.1596 0.59876-0.45475 1.5196-0.45475 0.59497 0 1.0914 0.11369 0.49644 0.11369 0.87919 0.28043v0.88677h-0.0531q-0.32211-0.27285-0.84887-0.45096-0.52296-0.1819-1.0725-0.1819-0.60254 0-0.97014 0.25011-0.3638 0.25011-0.3638 0.64423 0 0.35243 0.1819 0.55328t0.64045 0.30696q0.24253 0.05305 0.6897 0.12885 0.44718 0.07579 0.75793 0.15537 0.62907 0.16674 0.9474 0.50402 0.31832 0.33728 0.31832 0.94361z"/>
<path d="m160.69 42.111q0 0.42065-0.15917 0.74276-0.15916 0.32212-0.42822 0.53054-0.31833 0.25011-0.70108 0.35622-0.37896 0.10611-0.96635 0.10611h-2.0009v-5.6427h1.6712q0.6177 0 0.92466 0.04547 0.30696 0.04548 0.58739 0.18948 0.31074 0.16295 0.45096 0.42065 0.14022 0.2539 0.14022 0.61013 0 0.4017-0.20464 0.68592-0.20464 0.28043-0.54571 0.45096v0.03032q0.57223 0.11748 0.90193 0.50402 0.3297 0.38275 0.3297 0.97014zm-1.2619-2.5428q0-0.20464-0.0682-0.34485-0.0682-0.14022-0.21979-0.22738-0.17811-0.10232-0.43202-0.12506-0.2539-0.02653-0.62907-0.02653h-0.89435v1.6295h0.97014q0.35243 0 0.56086-0.03411 0.20843-0.0379 0.38654-0.15158 0.17811-0.11369 0.25011-0.2918 0.0758-0.1819 0.0758-0.42823zm0.48128 2.5731q0-0.34106-0.10232-0.54191t-0.37138-0.34106q-0.1819-0.09474-0.44339-0.12127-0.25769-0.03032-0.62907-0.03032h-1.1786v2.0994h0.99288q0.49265 0 0.80718-0.04926 0.31454-0.05306 0.51539-0.18948 0.21222-0.14779 0.31075-0.33727 0.0985-0.18948 0.0985-0.48886z"/>
<path d="m165.75 38.204-1.9858 3.1681v2.4746h-0.75034v-2.395l-1.9933-3.2477h0.82992l1.5424 2.5239 1.5575-2.5239z"/>
<path d="m173.51 42.111q0 0.42065-0.15916 0.74276-0.15916 0.32212-0.42823 0.53054-0.31832 0.25011-0.70107 0.35622-0.37896 0.10611-0.96635 0.10611h-2.0009v-5.6427h1.6712q0.61771 0 0.92467 0.04547 0.30695 0.04548 0.58739 0.18948 0.31074 0.16295 0.45096 0.42065 0.14021 0.2539 0.14021 0.61013 0 0.4017-0.20464 0.68592-0.20463 0.28043-0.5457 0.45096v0.03032q0.57223 0.11748 0.90193 0.50402 0.32969 0.38275 0.32969 0.97014zm-1.2619-2.5428q0-0.20464-0.0682-0.34485-0.0682-0.14022-0.21979-0.22738-0.17812-0.10232-0.43202-0.12506-0.2539-0.02653-0.62907-0.02653h-0.89435v1.6295h0.97014q0.35243 0 0.56086-0.03411 0.20843-0.0379 0.38654-0.15158 0.17811-0.11369 0.25011-0.2918 0.0758-0.1819 0.0758-0.42823zm0.48128 2.5731q0-0.34106-0.10231-0.54191-0.10232-0.20085-0.37139-0.34106-0.1819-0.09474-0.44338-0.12127-0.25769-0.03032-0.62907-0.03032h-1.1786v2.0994h0.99288q0.49264 0 0.80718-0.04926 0.31454-0.05306 0.51539-0.18948 0.21222-0.14779 0.31075-0.33727 0.0985-0.18948 0.0985-0.48886z"/>
<path d="m179.24 43.847h-0.97393l-1.8872-2.2434h-1.0573v2.2434h-0.75034v-5.6427h1.5803q0.5116 0 0.85267 0.06821 0.34106 0.06442 0.61391 0.23496 0.30696 0.19327 0.47749 0.48886 0.17432 0.2918 0.17432 0.74276 0 0.61013-0.30695 1.0232-0.30696 0.40928-0.84509 0.6177zm-1.7546-4.0549q0-0.24254-0.0872-0.42822-0.0834-0.18948-0.28043-0.31833-0.16295-0.1099-0.38654-0.15158-0.22358-0.04548-0.52675-0.04548h-0.88298v2.1298h0.75792q0.35623 0 0.6215-0.06063 0.26527-0.06442 0.45096-0.23496 0.17053-0.15916 0.25011-0.3638 0.0834-0.20843 0.0834-0.52676z"/>
<path d="m184.42 43.847h-0.79961l-0.55328-1.5727h-2.4405l-0.55328 1.5727h-0.76171l2.054-5.6427h1.0004zm-1.5841-2.2169-0.98908-2.7702-0.99288 2.7702z"/>
<path d="m189.58 43.847h-0.92845l-2.6755-5.0478v5.0478h-0.70108v-5.6427h1.1634l2.4405 4.6082v-4.6082h0.70107z"/>
<path d="m195.85 41.031q0 0.76929-0.33727 1.3946-0.33349 0.62528-0.89056 0.97014-0.38654 0.23874-0.86403 0.34485-0.4737 0.10611-1.2506 0.10611h-1.4249v-5.6427h1.4097q0.82613 0 1.3112 0.12127 0.48886 0.11748 0.82613 0.32591 0.57602 0.36001 0.89814 0.95877 0.32211 0.59876 0.32211 1.4211zm-0.78444-0.01137q0-0.66318-0.23117-1.1179-0.23116-0.45475-0.68971-0.71624-0.33348-0.18948-0.70865-0.26148-0.37517-0.07579-0.89814-0.07579h-0.70487v4.3543h0.70487q0.54191 0 0.94361-0.07958 0.40549-0.07958 0.74276-0.29559 0.42065-0.26906 0.62908-0.70866 0.21222-0.43959 0.21222-1.099z"/>
<path d="m199.06 43.847h-2.2283v-0.57602h0.73897v-4.4907h-0.73897v-0.57602h2.2283v0.57602h-0.73897v4.4907h0.73897z"/>
<path d="m205.11 41.031q0 0.76929-0.33727 1.3946-0.33349 0.62528-0.89056 0.97014-0.38654 0.23874-0.86403 0.34485-0.4737 0.10611-1.2506 0.10611h-1.4249v-5.6427h1.4097q0.82613 0 1.3112 0.12127 0.48886 0.11748 0.82613 0.32591 0.57602 0.36001 0.89814 0.95877 0.32211 0.59876 0.32211 1.4211zm-0.78444-0.01137q0-0.66318-0.23117-1.1179-0.23117-0.45475-0.68971-0.71624-0.33348-0.18948-0.70865-0.26148-0.37517-0.07579-0.89814-0.07579h-0.70487v4.3543h0.70487q0.54191 0 0.94361-0.07958 0.40549-0.07958 0.74276-0.29559 0.42065-0.26906 0.62908-0.70866 0.21222-0.43959 0.21222-1.099z"/>
</g>
</g>
</g>
</svg>
