<?xml version="1.0" encoding="UTF-8" standalone="no"?>
<!DOCTYPE svg PUBLIC "-//W3C//DTD SVG 1.1//EN" "http://www.w3.org/Graphics/SVG/1.1/DTD/svg11.dtd">
<svg width="100%" height="100%" viewBox="0 0 240 60" version="1.1" xmlns="http://www.w3.org/2000/svg" xmlns:xlink="http://www.w3.org/1999/xlink" xml:space="preserve" style="fill-rule:evenodd;clip-rule:evenodd;stroke-linejoin:round;stroke-miterlimit:1.41421;">
    <g transform="matrix(1.03175,0,0,1.04839,-5.47619,-2.09677)">
        <path d="M46.5,2L53.572,23.42L76.458,23.42L57.943,36.659L65.015,58.08L46.5,44.841L27.985,58.08L35.057,36.659L16.542,23.42L39.428,23.42L46.5,2Z" style="fill:rgb(45,42,95);"/>
    </g>
    <g transform="matrix(1,0,0,1,0,-0.80787)">
        <g transform="matrix(1.36538,0,0,1,-17.2623,2)">
            <g transform="matrix(0.732394,0,0,1,17.9296,0)">
                <path d="M86.02,52.22L87.2,51.02L84.92,48.8C85.48,48.04 85.96,47.14 86.38,46.14L84.88,45.02C84.52,45.98 84.1,46.82 83.62,47.54C82.42,46.36 81.44,45.36 80.68,44.5C82.4,43.6 84.08,42.6 84.08,40.68C84.08,38.96 82.64,37.74 80.54,37.74C78.36,37.74 76.9,39.04 76.9,40.9C76.9,41.9 77.32,42.9 78.24,44.14C76.66,44.98 75.22,46.04 75.22,48.02C75.22,50.28 77.12,51.94 79.62,51.94C81.16,51.94 82.6,51.26 83.84,50.08L86.02,52.22ZM78.72,40.88C78.72,39.92 79.44,39.18 80.56,39.18C81.6,39.18 82.26,39.78 82.26,40.7C82.26,41.94 81.12,42.66 79.76,43.36C79.06,42.4 78.72,41.62 78.72,40.88ZM79.7,50.2C78.26,50.2 77.12,49.24 77.12,47.84C77.12,46.7 78.02,45.96 79.18,45.3C80.06,46.3 81.18,47.44 82.58,48.84C81.7,49.7 80.72,50.2 79.7,50.2Z" style="fill:rgb(45,42,95);fill-rule:nonzero;"/>
            </g>
            <g transform="matrix(0.732394,0,0,1,17.9296,0)">
                <path d="M105.7,37.78C101.56,37.78 98.34,40.84 98.34,44.82C98.34,48.84 101.52,51.94 105.62,51.94C107.6,51.94 109.62,51.04 111.04,49.64L109.64,48.08C108.58,49.1 107.14,49.74 105.74,49.74C102.94,49.74 100.74,47.56 100.74,44.8C100.74,42.04 102.94,39.88 105.74,39.88C107.16,39.88 108.62,40.56 109.64,41.66L111.02,39.94C109.66,38.6 107.68,37.78 105.7,37.78Z" style="fill:rgb(45,42,95);fill-rule:nonzero;"/>
            </g>
            <g transform="matrix(0.732394,0,0,1,17.9296,0)">
                <path d="M119.4,37.78C115.22,37.78 111.98,40.82 111.98,44.84C111.98,48.84 115.22,51.94 119.4,51.94C123.58,51.94 126.82,48.84 126.82,44.84C126.82,40.84 123.58,37.78 119.4,37.78ZM119.42,39.9C122.16,39.9 124.4,42.06 124.4,44.84C124.4,47.62 122.16,49.82 119.42,49.82C116.68,49.82 114.38,47.62 114.38,44.84C114.38,42.06 116.66,39.9 119.42,39.9Z" style="fill:rgb(45,42,95);fill-rule:nonzero;"/>
            </g>
            <g transform="matrix(0.732394,0,0,1,17.9296,0)">
                <path d="M144.14,51.84L144.14,37.84L141.36,37.84L136.76,47.14L132.14,37.84L129.34,37.84L129.34,51.84L131.56,51.84L131.56,41.38L135.98,50.38L137.52,50.38L141.94,41.38L141.96,51.84L144.14,51.84Z" style="fill:rgb(45,42,95);fill-rule:nonzero;"/>
            </g>
            <g transform="matrix(0.732394,0,0,1,17.9296,0)">
                <path d="M147.84,37.84L147.84,51.84L150.2,51.84L150.2,47.62L153.42,47.62C156.94,47.62 158.96,45.78 158.96,42.62C158.96,39.58 156.94,37.84 153.42,37.84L147.84,37.84ZM150.2,39.96L153.32,39.96C155.48,39.96 156.7,40.84 156.7,42.68C156.7,44.58 155.48,45.5 153.32,45.5L150.2,45.5L150.2,39.96Z" style="fill:rgb(45,42,95);fill-rule:nonzero;"/>
            </g>
            <g transform="matrix(0.732394,0,0,1,17.9296,0)">
                <path d="M169.46,48.68L170.8,51.84L173.32,51.84L167.2,37.84L164.78,37.84L158.6,51.84L161.06,51.84L162.4,48.68L169.46,48.68ZM168.56,46.58L163.28,46.58L165.92,40.36L168.56,46.58Z" style="fill:rgb(45,42,95);fill-rule:nonzero;"/>
            </g>
            <g transform="matrix(0.732394,0,0,1,17.9296,0)">
                <path d="M187.32,51.84L187.32,37.84L185,37.84L185,47.9L177.5,37.84L175.18,37.84L175.18,51.84L177.54,51.84L177.54,41.8L185,51.84L187.32,51.84Z" style="fill:rgb(45,42,95);fill-rule:nonzero;"/>
            </g>
            <g transform="matrix(0.732394,0,0,1,17.9296,0)">
                <path d="M196.76,47.18L201.9,37.84L199.5,37.84L195.58,44.66L191.58,37.84L189.2,37.84L194.42,47.26L194.42,51.84L196.76,51.84L196.76,47.18Z" style="fill:rgb(45,42,95);fill-rule:nonzero;"/>
            </g>
        </g>
        <g transform="matrix(1,0,0,1,-1.88644,24)">
            <path d="M96.905,-16.604C89.453,-16.604 83.657,-11.096 83.657,-3.932C83.657,3.304 89.381,8.884 96.761,8.884C100.325,8.884 103.961,7.264 106.517,4.744L103.997,1.936C102.089,3.772 99.497,4.924 96.977,4.924C91.937,4.924 87.977,1 87.977,-3.968C87.977,-8.936 91.937,-12.824 96.977,-12.824C99.533,-12.824 102.161,-11.6 103.997,-9.62L106.481,-12.716C104.033,-15.128 100.469,-16.604 96.905,-16.604Z" style="fill:rgb(45,42,95);fill-rule:nonzero;"/>
            <path d="M121.565,-16.604C114.041,-16.604 108.209,-11.132 108.209,-3.896C108.209,3.304 114.041,8.884 121.565,8.884C129.089,8.884 134.921,3.304 134.921,-3.896C134.921,-11.096 129.089,-16.604 121.565,-16.604ZM121.601,-12.788C126.533,-12.788 130.565,-8.9 130.565,-3.896C130.565,1.108 126.533,5.068 121.601,5.068C116.669,5.068 112.529,1.108 112.529,-3.896C112.529,-8.9 116.633,-12.788 121.601,-12.788Z" style="fill:rgb(45,42,95);fill-rule:nonzero;"/>
            <path d="M155.081,3.016L157.493,8.704L162.029,8.704L151.013,-16.496L146.657,-16.496L135.533,8.704L139.961,8.704L142.373,3.016L155.081,3.016ZM153.461,-0.764L143.957,-0.764L148.709,-11.96L153.461,-0.764Z" style="fill:rgb(45,42,95);fill-rule:nonzero;"/>
            <path d="M175.889,-16.604C168.437,-16.604 162.641,-11.096 162.641,-3.932C162.641,3.304 168.365,8.884 175.745,8.884C179.309,8.884 182.945,7.264 185.501,4.744L182.981,1.936C181.073,3.772 178.481,4.924 175.961,4.924C170.921,4.924 166.961,1 166.961,-3.968C166.961,-8.936 170.921,-12.824 175.961,-12.824C178.517,-12.824 181.145,-11.6 182.981,-9.62L185.465,-12.716C183.017,-15.128 179.453,-16.604 175.889,-16.604Z" style="fill:rgb(45,42,95);fill-rule:nonzero;"/>
            <path d="M211.673,8.704L211.673,-16.496L207.425,-16.496L207.425,-5.552L194.069,-5.552L194.069,-16.496L189.821,-16.496L189.821,8.704L194.069,8.704L194.069,-1.736L207.425,-1.736L207.425,8.704L211.673,8.704Z" style="fill:rgb(45,42,95);fill-rule:nonzero;"/>
        </g>
    </g>
</svg>
