<svg style="position:absolute;width:0;height:0" xmlns="http://www.w3.org/2000/svg" overflow="hidden"><defs><symbol id="icon-play-circle" viewBox="0 0 136 136"><g opacity=".699" id="White"><ellipse cx="72" cy="67" rx="63" ry="65" fill="none" stroke="#fff" stroke-width="12.48" transform="matrix(.9762 0 0 .94615 -2.286 4.608)"/><path d="M65.518 50L87 85H44l21.518-35z" fill="#fff" stroke="#fff" stroke-width=".48" transform="matrix(-.00068 1.1628 -1.14286 -.00067 151.194 -7.11)"/></g></symbol><symbol id="icon-bracket-right" class="icon-color" viewBox="0 0 467 535"><path id="Shape-6" d="M7.77 515.43c-10.687-18.19-4.605-41.6 13.586-52.29l387.527-227.7c18.19-10.68 41.603-4.6 52.292 13.59 10.688 18.19 4.606 41.6-13.585 52.29L60.063 529.02c-18.19 10.69-41.603 4.6-52.292-13.59z"/><path id="Shape-6-copy" d="M5.218 18.94C15.855.72 39.25-5.42 57.47 5.21l388.16 226.62c18.222 10.63 24.37 34.03 13.73 52.25-10.636 18.22-34.03 24.37-52.252 13.73L18.948 71.2C.728 60.56-5.42 37.17 5.218 18.94z"/></symbol><symbol id="icon-hashtag" viewBox="0 0 32 32"><path class="path1" d="M17.696 18.286l1.143-4.57h-4.537l-1.143 4.57h4.536zm13.715-9l-1 4q-.124.43-.553.43h-5.84l-1.142 4.57h5.554q.267 0 .445.214.18.25.107.5l-1 4q-.09.43-.554.43h-5.84l-1.445 5.856q-.125.43-.554.43h-4q-.287 0-.465-.215-.16-.213-.107-.5l1.393-5.57h-4.535l-1.446 5.857q-.126.43-.555.43H5.857q-.268 0-.446-.215-.16-.214-.106-.5l1.393-5.57H1.143q-.268 0-.446-.215-.16-.214-.107-.5l1-4q.125-.43.554-.43h5.84l1.142-4.57H3.572q-.268 0-.446-.214-.18-.25-.107-.5l1-4q.088-.43.553-.43h5.84l1.445-5.856q.125-.43.57-.43h4q.27 0 .447.215.16.214.107.5l-1.393 5.57h4.535l1.446-5.856q.126-.43.572-.43h4q.268 0 .446.215.16.215.107.5l-1.393 5.572h5.554q.268 0 .446.214.16.214.107.5z"/></symbol><symbol id="icon-chain" viewBox="0 0 30 32"><path class="path1" d="M26 21.714q0-.714-.5-1.214l-3.714-3.714q-.5-.5-1.214-.5-.75 0-1.286.57.054.055.34.33t.383.385.267.34.232.455.062.49q0 .715-.5 1.215t-1.214.5q-.268 0-.49-.063t-.456-.232-.34-.268-.383-.384-.33-.34q-.59.555-.59 1.305 0 .714.5 1.214l3.68 3.696q.48.482 1.213.482.714 0 1.214-.464l2.625-2.607q.5-.5.5-1.197zM13.446 9.124q0-.713-.5-1.213l-3.68-3.695q-.5-.5-1.213-.5-.696 0-1.214.482L4.213 6.804q-.5.5-.5 1.196 0 .714.5 1.214l3.714 3.714q.482.482 1.214.482.75 0 1.286-.554-.054-.054-.34-.33t-.383-.384-.268-.34-.232-.454-.063-.49q0-.715.5-1.215t1.214-.5q.268 0 .49.063t.456.232.34.268.383.384.33.34q.59-.555.59-1.305zm15.983 12.59q0 2.143-1.52 3.625l-2.624 2.606q-1.482 1.482-3.625 1.482-2.16 0-3.642-1.518l-3.68-3.696q-1.48-1.482-1.48-3.625 0-2.197 1.57-3.733l-1.57-1.57q-1.537 1.57-3.715 1.57-2.143 0-3.643-1.5l-3.714-3.714Q.286 10.143.286 8t1.518-3.625L4.43 1.768Q5.91.286 8.053.286q2.16 0 3.643 1.518l3.68 3.696q1.48 1.482 1.48 3.625 0 2.196-1.57 3.732l1.57 1.57q1.537-1.57 3.715-1.57 2.143 0 3.643 1.5l3.714 3.714q1.5 1.5 1.5 3.644z"/></symbol><symbol id="icon-thumb-tack" viewBox="0 0 21 32"><path class="path1" d="M8.57 15.43v-8q0-.25-.16-.412T8 6.858t-.412.16-.16.41v8q0 .25.16.412t.41.16.412-.16.16-.41zm12 6.284q0 .464-.338.804t-.804.34h-7.66l-.912 8.624q-.036.214-.188.366t-.366.152h-.018q-.482 0-.57-.482l-1.358-8.66H1.142q-.464 0-.804-.34t-.34-.804q0-2.196 1.403-3.955T4.57 16V6.857q-.928 0-1.606-.68t-.68-1.606.68-1.606 1.607-.68H16q.93 0 1.607.68t.68 1.607-.68 1.608-1.607.68V16q1.768 0 3.17 1.76t1.402 3.954z"/></symbol><symbol id="icon-arrow-left" viewBox="0 0 43 32"><path class="path1" d="M42.31 14.044c-.177-.178-.532-.356-.71-.356H7.822l10.31-10.49c.18-.177.357-.532.357-.71 0-.356-.18-.533-.357-.71l-1.6-1.423C16.177.177 16 0 15.643 0s-.532.177-.71.355L.355 15.288c-.178.178-.356.533-.356.71s.177.534.355.712L15.11 31.643c0 .178.357.356.534.356s.533-.18.71-.357l1.6-1.6c.18-.178.357-.533.357-.71s-.177-.534-.355-.712L7.645 18.133H41.42c.178 0 .533-.178.71-.356.357-.178.534-.356.534-.71V14.93c0-.356-.178-.71-.356-.89z"/></symbol><symbol id="icon-arrow-right" viewBox="0 0 43 32"><path class="path1" d="M.356 17.956c.178.178.533.356.71.356h33.78l-10.312 10.49c-.178.177-.356.532-.356.71 0 .356.178.533.356.71l1.6 1.6c.178.18.533.357.71.357s.534-.18.712-.357L42.312 16.89c.178-.356.356-.71.356-.89s-.178-.532-.356-.71L27.556.357C27.556.18 27.2 0 27.023 0s-.533.18-.71.357l-1.6 1.6c-.18.178-.357.533-.357.71s.178.534.356.712l10.31 10.488H1.246c-.178 0-.533.178-.71.356-.357.178-.534.356-.534.71v2.312c0 .178.18.533.357.71z"/></symbol><symbol id="icon-play" viewBox="0 0 22 28"><path d="M21.625 14.484L.875 26.014C.39 26.282 0 26.047 0 25.5v-23c0-.548.39-.782.875-.517l20.75 11.53c.484.267.484.704 0 .97z"/></symbol><symbol id="icon-pause" viewBox="0 0 24 28"><path d="M24 3v22c0 .547-.453 1-1 1h-8c-.547 0-1-.453-1-1V3c0-.547.453-1 1-1h8c.547 0 1 .453 1 1zM10 3v22c0 .547-.453 1-1 1H1c-.547 0-1-.453-1-1V3c0-.547.453-1 1-1h8c.547 0 1 .453 1 1z"/></symbol><symbol id="icon-search" viewBox="0 0 30 32"><path class="path1" d="M20.57 14.857q0-3.304-2.347-5.652T12.57 6.857 6.92 9.205t-2.35 5.652 2.35 5.652 5.65 2.347 5.653-2.348 2.348-5.653zm9.144 14.857q0 .93-.68 1.607T27.43 32q-.964 0-1.607-.68l-6.124-6.106q-3.196 2.214-7.125 2.214-2.553 0-4.883-.99t-4.018-2.68T.99 19.74 0 14.856t.99-4.884 2.68-4.018 4.017-2.68 4.884-.99 4.885.99 4.018 2.68 2.68 4.018.99 4.884q0 3.93-2.214 7.125l6.124 6.126q.66.66.66 1.607z"/></symbol><symbol id="icon-envelope-o" viewBox="0 0 32 32"><path class="path1" d="M29.714 26.857V13.143q-.57.643-1.232 1.18-4.786 3.678-7.607 6.035-.91.768-1.482 1.196t-1.545.866-1.83.438h-.036q-.857 0-1.83-.438t-1.545-.866-1.482-1.196Q8.305 18 3.518 14.322q-.66-.536-1.232-1.18v13.715q0 .232.17.402t.402.17h26.286q.232 0 .402-.17t.17-.403zm0-18.768v-.44l-.01-.23-.053-.224-.097-.16-.16-.135-.25-.044H2.855q-.232 0-.402.17t-.17.402q0 3 2.625 5.07 3.445 2.715 7.16 5.662.107.09.625.527t.82.67.796.563.903.49.768.162h.037q.357 0 .768-.16t.902-.492.795-.563.82-.67.626-.527q3.714-2.946 7.16-5.66.965-.77 1.796-2.064t.83-2.348zM32 7.43v19.428q0 1.18-.84 2.018t-2.017.84H2.857q-1.18 0-2.018-.84T0 26.858V7.428Q0 6.25.84 5.412t2.017-.838h26.286q1.18 0 2.018.84T32 7.428z"/></symbol><symbol id="icon-close" viewBox="0 0 25 32"><path class="path1" d="M23.18 23.607q0 .714-.5 1.214l-2.43 2.43q-.5.5-1.214.5t-1.214-.5L12.572 22l-5.25 5.25q-.5.5-1.214.5t-1.214-.5l-2.43-2.43q-.5-.5-.5-1.213t.5-1.214l5.25-5.25-5.25-5.25q-.5-.5-.5-1.214t.5-1.215l2.43-2.43q.5-.5 1.214-.5t1.214.5l5.25 5.25 5.25-5.25q.5-.5 1.214-.5t1.214.5l2.43 2.43q.5.5.5 1.214t-.5 1.213l-5.25 5.25 5.25 5.25q.5.5.5 1.214z"/></symbol><symbol id="icon-angle-down" viewBox="0 0 21 32"><path class="path1" d="M19.196 13.143q0 .232-.18.41l-8.32 8.322q-.18.18-.41.18t-.412-.18l-8.32-8.32q-.18-.18-.18-.412t.18-.41l.892-.894q.18-.18.41-.18t.412.18l7.018 7.017 7.018-7.018q.18-.18.41-.18t.412.18l.893.892q.178.18.178.41z"/></symbol><symbol id="icon-folder-open" viewBox="0 0 34 32"><path class="path1" d="M33.554 17q0 .554-.554 1.18l-6 7.07q-.768.91-2.152 1.545t-2.563.634H2.855q-.606 0-1.08-.233t-.472-.768q0-.555.554-1.18l6-7.07q.768-.912 2.152-1.546T12.57 16h19.43q.606 0 1.08.232t.472.768zm-6.125-6.143v2.857H12.57q-1.68 0-3.518.848t-2.93 2.134L.02 23.876q0-.072-.01-.224T0 23.43V6.285q0-1.643 1.18-2.82T4 2.285h5.714q1.643 0 2.82 1.18t1.18 2.82v.57h9.714q1.643 0 2.82 1.18t1.18 2.82z"/></symbol><symbol id="icon-bars" viewBox="0 0 27 32"><path class="path1" d="M27.43 24v2.286q0 .464-.34.804t-.804.34H1.143q-.464 0-.804-.34T0 26.286V24q0-.464.34-.804t.803-.34h25.143q.464 0 .804.34t.34.804zm0-9.143v2.286q0 .464-.34.804t-.804.34H1.143q-.464 0-.804-.34T0 17.143v-2.286q0-.464.34-.804t.803-.34h25.143q.464 0 .804.34t.34.804zm0-9.143V8q0 .464-.34.804t-.804.34H1.143q-.464 0-.804-.34T0 8V5.714q0-.464.34-.804t.803-.34h25.143q.464 0 .804.34t.34.804z"/></symbol><symbol id="icon-twitter" viewBox="0 0 30 32"><path class="path1" d="M28.93 7.286q-1.197 1.75-2.894 2.982.018.25.018.75 0 2.32-.68 4.634t-2.062 4.437-3.295 3.758-4.607 2.607-5.768.973q-4.84 0-8.857-2.59.625.072 1.393.072 4.018 0 7.16-2.464-1.874-.036-3.356-1.152t-2.036-2.848q.59.09 1.09.09.767 0 1.517-.197-2-.412-3.313-1.992t-1.313-3.67v-.07q1.214.678 2.607.73-1.18-.785-1.875-2.053t-.697-2.75q0-1.57.786-2.91 2.16 2.66 5.258 4.258t6.634 1.777q-.143-.68-.143-1.32 0-2.394 1.687-4.08t4.08-1.69q2.5 0 4.214 1.822Q26.428 6.017 28.143 5q-.66 2.053-2.536 3.178 1.66-.18 3.32-.893z"/></symbol><symbol id="icon-facebook" viewBox="0 0 19 32"><path class="path1" d="M17.125.214v4.714H14.32q-1.535 0-2.07.643t-.536 1.93v3.375h5.232l-.696 5.286h-4.536v13.555H6.25V16.16H1.696v-5.285H6.25V6.982q0-3.32 1.857-5.152T13.053 0q2.625 0 4.07.214z"/></symbol><symbol id="icon-github" viewBox="0 0 27 32"><path class="path1" d="M13.714 2.286q3.732 0 6.884 1.84t4.99 4.99T27.43 16q0 4.482-2.616 8.063t-6.76 4.955q-.48.09-.713-.125t-.233-.536q0-.054.01-1.366t.008-2.4q0-1.733-.93-2.537 1.02-.107 1.83-.32t1.68-.697 1.446-1.188.947-1.875.366-2.688q0-2.125-1.41-3.68.66-1.624-.144-3.642-.5-.16-1.447.196t-1.643.785l-.68.43q-1.66-.465-3.428-.465t-3.43.464q-.285-.196-.758-.482t-1.49-.688-1.52-.24q-.803 2.017-.142 3.642-1.41 1.554-1.41 3.68 0 1.517.365 2.678t.938 1.875 1.438 1.195 1.68.696 1.83.322q-.697.643-.876 1.84-.375.178-.804.267t-1.018.088-1.17-.384-.99-1.116q-.34-.57-.867-.93t-.884-.428l-.357-.054q-.375 0-.518.08t-.09.205.16.25.233.215l.125.09q.393.178.777.678t.563.91l.18.412q.23.68.785 1.098t1.196.536 1.24.124.99-.063l.412-.07q0 .68.01 1.58t.008.973q0 .32-.232.536t-.714.124Q5.23 27.64 2.614 24.06T0 15.995q0-3.732 1.838-6.884t4.99-4.99 6.885-1.84zM5.196 21.982q.054-.125-.125-.214-.178-.054-.23.036-.055.125.124.214.16.107.232-.036zm.554.607q.125-.09-.036-.287-.18-.16-.286-.054-.125.088.036.285.18.18.286.054zm.536.803q.16-.125 0-.34-.143-.23-.304-.106-.16.09 0 .32t.304.126zm.75.75q.143-.143-.07-.34-.215-.213-.358-.053-.16.143.07.34.215.213.358.053zm1.018.446q.054-.197-.232-.287-.268-.07-.34.125t.233.268q.268.107.34-.107zm1.125.09q0-.233-.305-.197-.286 0-.286.196 0 .23.303.195.286 0 .286-.196zm1.034-.18q-.036-.196-.32-.16-.287.053-.25.267t.32.143.25-.25z"/></symbol><symbol id="icon-google-plus" viewBox="0 0 41 32"><path class="path1" d="M25.66 16.304q0 3.714-1.553 6.616t-4.43 4.536-6.588 1.634q-2.662 0-5.09-1.036t-4.18-2.786-2.785-4.18T0 16t1.035-5.09T3.82 6.733 8 3.946t5.09-1.036q5.106 0 8.767 3.43l-3.554 3.41q-2.09-2.018-5.214-2.018-2.197 0-4.064 1.107T6.07 11.847 4.983 16t1.09 4.152 2.954 3.01 4.063 1.106q1.48 0 2.722-.41t2.045-1.028 1.402-1.402.874-1.482.384-1.32h-7.43v-4.5h12.358q.214 1.124.214 2.178zm15.483-2.18v3.75H37.41v3.733h-3.75v-3.732h-3.73v-3.75h3.73v-3.732h3.75v3.732h3.733z"/></symbol><symbol id="icon-linkedin" viewBox="0 0 27 32"><path class="path1" d="M6.232 11.16v17.697H.34V11.16H6.23zm.375-5.464Q6.625 7 5.705 7.876t-2.42.874H3.25q-1.465 0-2.358-.875T0 5.695q0-1.32.92-2.187t2.4-.866 2.376.866.91 2.188zM27.43 18.714v10.143h-5.876v-9.464q0-1.875-.723-2.938t-2.258-1.063q-1.125 0-1.884.616t-1.134 1.527q-.196.536-.196 1.446v9.876H9.483q.036-7.125.036-11.554t-.02-5.286l-.017-.857h5.875v2.57h-.036q.357-.57.732-1t1.01-.93 1.553-.776 2.045-.277q3.054 0 4.91 2.027t1.858 5.938z"/></symbol><symbol id="icon-quote-right" viewBox="0 0 30 32"><path class="path1" d="M13.714 5.714v12.57q0 1.858-.723 3.546t-1.954 2.92-2.92 1.955-3.545.723H3.43q-.464 0-.804-.34t-.34-.803V24q0-.465.34-.805t.804-.34H4.57q1.894 0 3.233-1.338t1.34-3.232v-.57q0-.715-.5-1.215T7.427 16h-4q-1.43 0-2.43-1t-1-2.43V5.715q0-1.43 1-2.43t2.43-1h6.857q1.43 0 2.43 1t1 2.43zm16 0v12.57q0 1.858-.723 3.546t-1.954 2.92-2.92 1.955-3.545.723H19.43q-.464 0-.804-.34t-.34-.803V24q0-.465.34-.805t.804-.34h1.143q1.894 0 3.233-1.338t1.34-3.232v-.57q0-.715-.5-1.215t-1.215-.5h-4q-1.43 0-2.43-1t-1-2.43V5.715q0-1.43 1-2.43t2.43-1h6.857q1.43 0 2.43 1t1 2.43z"/></symbol><symbol id="icon-mail-reply" viewBox="0 0 32 32"><path class="path1" d="M32 20q0 2.964-2.268 8.054-.054.125-.188.43t-.24.535-.233.392q-.213.304-.5.304-.267 0-.42-.18t-.15-.445q0-.16.044-.472t.045-.42q.088-1.214.088-2.196 0-1.804-.313-3.232T27 20.297t-1.43-1.804-1.884-1.24-2.375-.76-2.75-.384T15.428 16h-4v4.57q0 .465-.34.805t-.803.34-.804-.34L.337 12.234q-.34-.34-.34-.804t.34-.804L9.48 1.483q.34-.34.804-.34t.804.34.34.804v4.57h4q12.73 0 15.624 7.197.946 2.393.946 5.946z"/></symbol><symbol id="icon-youtube" viewBox="0 0 27 32"><path class="path1" d="M17.34 22.214v3.768q0 1.196-.697 1.196-.41 0-.804-.393V21.41q.392-.393.803-.393.696 0 .696 1.196zm6.035.018v.82h-1.607v-.82q0-1.214.804-1.214t.804 1.214zM6.125 18.34h1.91v-1.68h-5.57v1.68H4.34V28.5h1.786V18.34zm5.143 10.16h1.59v-8.82h-1.59v6.75q-.536.75-1.018.75-.32 0-.375-.376-.018-.054-.018-.625v-6.5h-1.59v6.98q0 .876.144 1.305.215.66 1.037.66.857 0 1.82-1.088v.964zm7.66-2.643V22.34q0-1.305-.16-1.77-.304-1-1.268-1-.893 0-1.66.965V16.66h-1.59V28.5h1.59v-.858q.803.982 1.66.982.964 0 1.268-.982.16-.482.16-1.786zm6.036-.178v-.233H23.34q0 .91-.037 1.09-.125.642-.714.642-.822 0-.822-1.233v-1.554h3.196v-1.84q0-1.41-.482-2.07-.696-.91-1.893-.91-1.215 0-1.912.91-.5.66-.5 2.07v3.09q0 1.41.518 2.07.696.912 1.93.912 1.285 0 1.928-.946.32-.483.375-.965.035-.16.035-1.036zM14.107 9.374v-3.75q0-1.232-.768-1.232t-.77 1.232v3.75q0 1.25.77 1.25t.767-1.25zm12.84 13.41q0 4.18-.465 6.25-.25 1.055-1.036 1.77t-1.82.82Q20.338 32 13.713 32t-9.91-.375q-1.037-.107-1.83-.82t-1.028-1.77q-.464-2-.464-6.25 0-4.178.464-6.25.25-1.053 1.036-1.767t1.84-.84q3.267-.356 9.892-.356t9.91.357q1.037.124 1.83.838t1.028 1.768q.464 2 .464 6.25zM9.124 0h1.82l-2.16 7.125v4.84H7v-4.84q-.25-1.32-1.09-3.786Q5.25 1.5 4.75 0H6.64L7.91 4.696zm6.607 5.946V9.07q0 1.447-.5 2.108-.66.91-1.893.91-1.197 0-1.876-.91-.5-.68-.5-2.107V5.947q0-1.43.5-2.09.68-.91 1.875-.91 1.23 0 1.892.91.5.662.5 2.09zm5.982-2.892v8.91H20.09v-.98q-.947 1.106-1.84 1.106-.82 0-1.054-.66-.143-.43-.143-1.34V3.054h1.625v6.554q0 .59.018.625.054.393.375.393.483 0 1.02-.768V3.054h1.624z"/></symbol><symbol id="icon-dropbox" viewBox="0 0 32 32"><path class="path1" d="M7.18 12.625L16 18.07l-6.107 5.09-8.75-5.696zm17.606 9.91v1.93l-8.75 5.232v.018l-.018-.018-.018.018v-.018l-8.732-5.232v-1.93l2.625 1.715L16 19.18v-.037l.018.018.018-.017v.036l6.125 5.07zM9.893 2.108L16 7.197l-8.82 5.428-6.037-4.82zM24.82 12.625l6.037 4.84-8.732 5.695L16 18.07zM22.126 2.107l8.732 5.696-6.036 4.82L16 7.196z"/></symbol><symbol id="icon-instagram" viewBox="0 0 27 32"><path class="path1" d="M18.286 16q0-1.893-1.34-3.232t-3.23-1.34-3.233 1.34T9.143 16t1.34 3.232 3.232 1.34 3.232-1.34T18.287 16zm2.464 0q0 2.93-2.054 4.982t-4.982 2.054-4.982-2.054T6.678 16t2.054-4.982 4.982-2.054 4.982 2.054T20.75 16zm1.93-7.32q0 .678-.483 1.16t-1.16.482-1.162-.482-.482-1.16.482-1.162 1.16-.482 1.162.482.482 1.16zm-8.966-3.93q-.125 0-1.366-.01t-1.884 0-1.723.055-1.838.18-1.277.33q-.893.356-1.57 1.035T3.017 7.91q-.196.52-.33 1.278t-.18 1.84-.053 1.722 0 1.884.01 1.366-.01 1.366 0 1.884.054 1.723.178 1.84.33 1.276q.357.892 1.036 1.57t1.57 1.036q.52.196 1.278.33t1.84.18 1.722.053 1.884 0 1.366-.01 1.366.01 1.884 0 1.723-.055 1.84-.18 1.276-.33q.893-.356 1.57-1.035t1.037-1.57q.196-.52.33-1.278t.18-1.84.053-1.722 0-1.884-.01-1.366.01-1.366 0-1.884-.054-1.723-.18-1.84-.33-1.276q-.357-.892-1.036-1.57t-1.57-1.036q-.52-.196-1.278-.33t-1.84-.18-1.722-.053-1.884 0-1.366.01zM27.43 16q0 4.09-.09 5.66-.18 3.715-2.214 5.75t-5.75 2.215q-1.57.09-5.66.09t-5.662-.09q-3.714-.18-5.75-2.214T.09 21.66Q0 20.09 0 16t.09-5.66q.18-3.715 2.214-5.75t5.75-2.215q1.57-.09 5.66-.09t5.662.09q3.714.18 5.75 2.214t2.214 5.75q.09 1.57.09 5.66z"/></symbol><symbol id="icon-flickr" viewBox="0 0 27 32"><path class="path1" d="M22.286 2.286q2.125 0 3.634 1.51t1.51 3.633V24.57q0 2.125-1.51 3.634t-3.634 1.51H5.143q-2.125 0-3.634-1.51T0 24.572V7.43q0-2.126 1.51-3.635t3.633-1.51h17.143zM12.464 16q0-1.57-1.107-2.68t-2.68-1.106T6 13.32 4.89 16 6 18.68t2.678 1.106 2.68-1.107T12.463 16zm10.072 0q0-1.57-1.107-2.68t-2.68-1.106-2.68 1.107T14.965 16t1.107 2.68 2.68 1.106 2.68-1.107T22.535 16z"/></symbol><symbol id="icon-tumblr" viewBox="0 0 19 32"><path class="path1" d="M16.857 23.732l1.43 4.232q-.412.625-1.983 1.18t-3.16.57q-1.858.036-3.403-.464t-2.544-1.32T5.5 26.035t-.99-2.143-.296-2.107v-9.714h-3v-3.84Q2.5 7.77 3.518 6.993t1.625-1.607 1.036-1.82.606-1.77.268-1.58q.018-.088.08-.15T7.268 0h4.357v7.572h5.946v4.5h-5.963v9.25q0 .536.116 1t.402.938.884.74 1.454.25q1.393-.035 2.393-.517z"/></symbol><symbol id="icon-dribbble" viewBox="0 0 27 32"><path class="path1" d="M18.286 26.786q-.75-4.304-2.5-8.893h-.036l-.036.018q-.286.108-.768.296t-1.804.875-2.446 1.465-2.34 2.045-1.838 2.643l-.268-.196q3.286 2.68 7.464 2.68 2.357 0 4.57-.93zm-3.304-10.84q-.375-.875-.946-1.982-5.554 1.66-12.018 1.66Q2 15.75 2 16q0 2.214.786 4.223T5 23.82q.893-1.588 2.205-2.972t2.545-2.223 2.33-1.446 1.777-.858l.66-.232q.072-.018.233-.063t.232-.08zm-1.91-3.785q-2.144-3.803-4.358-6.75-2.464 1.162-4.18 3.322T2.25 13.59q5.392 0 10.82-1.43zm12.214 5.697q-3.75-1.07-7.304-.518 1.554 4.267 2.286 8.374 1.982-1.34 3.304-3.384t1.714-4.473zM10.91 4.625q-.017 0-.035.018.018-.018.036-.018zm10.536 2.59q-3.304-2.93-7.732-2.93-1.357 0-2.768.34 2.34 3.035 4.393 6.82 1.23-.464 2.32-1.08t1.723-1.098 1.17-1.018.67-.724zm3.983 8.66q-.055-4.143-2.662-7.32l-.018.017q-.16.214-.34.438t-.776.795-1.268 1.08-1.786 1.16-2.348 1.153q.446.946.786 1.696.036.107.116.313t.134.295q.643-.09 1.33-.125t1.313-.036 1.233.028 1.143.07 1.01.1.856.115.652.107.446.08zm2 .125q0 3.732-1.84 6.884t-4.99 4.99-6.885 1.84-6.884-1.84-4.99-4.99T0 16t1.84-6.884 4.99-4.99 6.885-1.84 6.884 1.84 4.99 4.99T27.43 16z"/></symbol><symbol id="icon-skype" viewBox="0 0 27 32"><path class="path1" d="M20.946 18.982q0-.893-.348-1.634t-.866-1.223-1.304-.875-1.473-.607-1.563-.41l-1.857-.43q-.536-.125-.786-.188t-.626-.205-.536-.286-.295-.375-.134-.537q0-1.375 2.57-1.375.768 0 1.375.214t.964.51.678.597.714.517.857.214q.838 0 1.347-.57t.51-1.375q0-.982-1-1.777T16.64 7.963t-3.25-.41q-1.214 0-2.357.276T8.9 8.667t-1.59 1.554-.598 2.295q0 1.09.34 1.902t1 1.347 1.428.866 1.84.58l2.606.643q1.607.393 2 .643.57.356.57 1.07 0 .696-.713 1.152t-1.875.455q-.91 0-1.634-.286t-1.16-.687-.814-.804-.82-.69-.965-.285q-.893 0-1.348.536t-.455 1.34q0 1.643 2.18 2.813t5.195 1.17q1.304 0 2.5-.33t2.188-.955 1.58-1.67.59-2.348zm6.483 3.875q0 2.84-2.01 4.848t-4.848 2.01q-2.32 0-4.18-1.43-1.374.286-2.678.286-2.554 0-4.884-.99T4.812 24.9t-2.68-4.017T1.143 16q0-1.305.286-2.68-1.43-1.857-1.43-4.18 0-2.838 2.01-4.847t4.848-2.01q2.32 0 4.18 1.43 1.374-.286 2.678-.286 2.554 0 4.884.99t4.018 2.68 2.68 4.018.99 4.884q0 1.303-.286 2.678 1.43 1.857 1.43 4.18z"/></symbol><symbol id="icon-foursquare" viewBox="0 0 23 32"><path class="path1" d="M17.857 7.75l.66-3.464q.09-.41-.16-.714t-.625-.304H5.018q-.41 0-.688.304t-.277.66v19.662q0 .125.107.018l5.196-6.286q.41-.464.68-.598t.856-.134h4.268q.393 0 .66-.26t.322-.526q.43-2.32.66-3.41.072-.376-.204-.715t-.652-.34h-5.25q-.518 0-.857-.338t-.34-.857v-.75q0-.518.34-.848t.856-.33h6.18q.32 0 .624-.24t.357-.528zm4.054-3.964q-.267 1.304-.954 4.76t-1.24 6.25-.626 3.097q-.107.393-.16.58t-.25.58-.44.59-.687.374-1.036.18h-4.84q-.23 0-.392.178-.143.16-7.607 8.82-.393.447-1.045.51t-.866-.098q-.982-.393-.982-1.75V2.677q0-.98.68-1.83T3.606 0h15.857q1.696 0 2.268.946t.18 2.84zm0 0l-2.82 14.107q.07-.304.625-3.098t1.24-6.25.956-4.76z"/></symbol><symbol id="icon-wordpress" viewBox="0 0 32 32"><path class="path1" d="M2.268 16q0-2.91 1.196-5.59l6.554 17.947q-3.5-1.696-5.625-5.018T2.268 16zm23-.696q0 .34-.045.688t-.18.884-.204.786-.314 1.054-.313 1.036l-1.357 4.57-4.964-14.75q.82-.053 1.57-.142.34-.036.465-.33t-.045-.554-.51-.24l-3.66.178q-1.34-.018-3.607-.18-.214-.017-.366.09t-.206.268-.027.33.16.295.35.143l1.428.143 2.143 5.857-3 9-5-14.857q.82-.054 1.57-.143.34-.036.465-.33t-.045-.554-.51-.24l-3.66.178q-.125 0-.41-.01t-.465-.008Q6.408 5.61 9.435 3.94t6.563-1.67q2.625 0 5.01.945t4.258 2.66h-.18q-.98 0-1.642.724t-.66 1.704q0 .214.035.43t.07.383.143.41.16.376.215.402.223.375.26.43.25.41q1.125 1.91 1.125 3.786zm-9.036 1.892l4.232 11.554q.018.107.09.196-2.25.786-4.555.786-2 0-3.876-.57zM28.036 9.41q1.696 3.108 1.696 6.59 0 3.732-1.857 6.884t-4.982 4.973L27.09 15.75q1.053-3.018 1.053-4.93 0-.75-.107-1.41zM16 0q3.25 0 6.214 1.268t5.107 3.41 3.412 5.108T32 16t-1.268 6.214-3.41 5.107-5.108 3.412T16 32t-6.214-1.268-5.107-3.41-3.412-5.108T0 16t1.268-6.214 3.41-5.107 5.108-3.412T16 0zm0 31.268q3.09 0 5.92-1.214t4.875-3.26 3.26-4.874T31.267 16t-1.214-5.92-3.26-4.875-4.874-3.26T16 .733t-5.92 1.214-4.875 3.26-3.26 4.874T.733 16t1.214 5.92 3.26 4.875 4.874 3.26T16 31.267z"/></symbol><symbol id="icon-stumbleupon" viewBox="0 0 34 32"><path class="path1" d="M18.964 12.714v-2.107q0-.75-.536-1.286t-1.286-.535-1.286.536-.536 1.287v10.93q0 3.124-2.25 5.338T7.66 29.09q-3.18 0-5.42-2.242t-2.242-5.42v-4.75h5.857v4.68q0 .767.536 1.294t1.287.527 1.286-.528.536-1.295v-11.07q0-3.055 2.258-5.215t5.384-2.16q3.143 0 5.393 2.178t2.25 5.25v2.43l-3.482 1.035zm9.465 3.965h5.856v4.75q0 3.178-2.24 5.42t-5.42 2.24q-3.162 0-5.412-2.223t-2.25-5.366v-4.785l2.34 1.09 3.48-1.037v4.82q0 .75.537 1.278t1.287.527 1.286-.527.536-1.277v-4.912z"/></symbol><symbol id="icon-digg" viewBox="0 0 37 32"><path class="path1" d="M5.857 5.036H9.5V22.59H0V10.144h5.857V5.037zm0 14.625v-6.588H3.66v6.59h2.197zm5.107-9.517V22.59h3.66V10.142h-3.66zm0-5.107V8.68h3.66V5.035h-3.66zm5.125 5.107h9.517v16.82H16.09v-2.91h5.856V22.59H16.09V10.142zm5.856 9.518v-6.588H19.75v6.59h2.196zm5.125-9.517h9.5v16.82h-9.5v-2.91h5.84V22.59h-5.84V10.142zm5.84 9.518v-6.588h-2.195v6.59h2.196z"/></symbol><symbol id="icon-spotify" viewBox="0 0 27 32"><path class="path1" d="M20.125 21.607q0-.57-.536-.91-3.447-2.055-7.983-2.055-2.375 0-5.125.607-.75.16-.75.928 0 .357.24.616t.635.26q.09 0 .66-.144 2.358-.482 4.34-.482 4.036 0 7.09 1.84.338.195.588.195.34 0 .59-.24t.25-.617zm1.714-3.84q0-.713-.626-1.088-4.232-2.52-9.786-2.52-2.732 0-5.41.75-.858.233-.858 1.144 0 .446.313.76t.76.312q.124 0 .66-.143 2.18-.59 4.482-.59 4.982 0 8.714 2.215.428.232.678.232.446 0 .76-.313t.312-.76zm1.928-4.428q0-.84-.714-1.25-2.25-1.305-5.232-1.974t-6.125-.67q-3.643 0-6.5.84-.41.124-.688.454t-.278.866q0 .554.366.93t.92.374q.196 0 .714-.143 2.375-.66 5.482-.66 2.84 0 5.527.606t4.528 1.696q.375.213.714.213.518 0 .902-.366t.384-.92zm3.66 2.66q0 3.732-1.838 6.884t-4.99 4.99-6.885 1.84-6.884-1.84-4.99-4.99T0 16t1.84-6.884 4.99-4.99 6.885-1.84 6.884 1.84 4.99 4.99T27.43 16z"/></symbol><symbol id="icon-soundcloud" viewBox="0 0 41 32"><path class="path1" d="M14 24.5l.286-4.304-.286-9.34q-.018-.178-.134-.303t-.295-.125q-.16 0-.285.125t-.125.304l-.25 9.34.25 4.303q.018.18.134.295t.277.116q.394 0 .43-.41zm5.286-.518l.196-3.768-.214-10.464q0-.286-.232-.43-.143-.088-.286-.088t-.286.09q-.232.142-.232.428l-.018.107-.18 10.34.197 4.213v.018q0 .18.108.304.16.196.41.196.197 0 .358-.16.16-.126.16-.358zm-18.66-6.07l.356 2.285-.357 2.25q-.036.16-.16.16t-.162-.16L0 20.197l.303-2.286q.036-.16.16-.16t.162.16zM2.16 16.5l.465 3.696-.464 3.625q-.035.162-.178.162-.16 0-.16-.18l-.412-3.606.41-3.696q0-.16.162-.16.143 0 .18.16zm1.644-.68l.446 4.376-.446 4.232q0 .196-.196.196-.18 0-.214-.196l-.375-4.232.374-4.375q.036-.213.214-.213.196 0 .196.214zm1.678-.124l.41 4.5-.41 4.357q-.036.232-.25.232-.232 0-.232-.232l-.375-4.357.375-4.5q0-.232.232-.232.214 0 .25.232zm1.68.322l.374 4.18-.375 4.392q-.035.286-.285.286-.107 0-.188-.08t-.08-.205L6.25 20.2l.357-4.18q0-.106.08-.187t.188-.08q.25 0 .286.27zm1.677-2.607l.374 6.787-.375 4.393q0 .125-.09.223t-.214.098q-.286 0-.32-.32l-.322-4.393.32-6.786q.037-.32.322-.32.125 0 .214.098t.09.223zm1.678-1.535l.34 8.357-.34 4.357q0 .142-.098.24t-.24.098q-.322 0-.358-.34l-.286-4.356.286-8.357q.036-.34.357-.34.142 0 .24.1t.098.24zm1.75-.714l.32 9.037-.32 4.32q-.036.376-.393.376-.34 0-.375-.375l-.286-4.32.286-9.037q0-.16.116-.276t.26-.116q.16 0 .267.116t.125.277zm7 13.25zm-3.536-13.32L16 20.195l-.268 4.268q0 .18-.134.313t-.313.134-.304-.124-.142-.32l-.25-4.27.25-9.106q0-.196.134-.32t.313-.126.313.125.134.32zm1.768.34l.25 8.785-.25 4.214q0 .195-.143.338t-.34.143-.338-.142-.162-.34l-.214-4.213.214-8.786q.018-.215.16-.358t.34-.143.33.142.152.357zm3.786 8.784l-.25 4.125q0 .23-.16.392t-.394.16-.393-.16-.18-.393l-.107-2.037-.107-2.09.214-11.356v-.054q.036-.268.214-.43.16-.124.357-.124.144 0 .27.088.25.143.285.464zm19.857-.34q0 2.09-1.482 3.564t-3.57 1.473H22.054q-.232-.035-.393-.195t-.16-.393V8.268q0-.41.5-.59 1.518-.606 3.232-.606 3.482 0 6.036 2.348t2.857 5.777q.946-.393 1.964-.393 2.088 0 3.57 1.482t1.482 3.59z"/></symbol><symbol id="icon-codepen" viewBox="0 0 32 32"><path class="path1" d="M3.857 20.875l10.768 7.18v-6.412L8.66 17.66zm-1.107-2.57L6.196 16 2.75 13.696v4.607zm14.625 9.75l10.768-7.18-4.804-3.214-5.965 3.983v6.41zM16 19.25L20.857 16 16 12.75 11.143 16zm-7.34-4.91l5.965-3.983v-6.41L3.857 11.124zM25.805 16l3.446 2.304v-4.607zm-2.465-1.66l4.803-3.215-10.768-7.18v6.412zM32 11.124v9.75q0 .732-.607 1.143l-14.625 9.75Q16.393 32 16 32t-.768-.232L.607 22.018Q0 21.608 0 20.875v-9.75q0-.732.607-1.143L15.232.232Q15.607 0 16 0t.768.232l14.625 9.75q.607.41.607 1.143z"/></symbol><symbol id="icon-twitch" viewBox="0 0 32 32"><path class="path1" d="M16 7.75v7.75h-2.59V7.75H16zm7.107 0v7.75h-2.59V7.75h2.59zm0 13.57l4.518-4.535V2.59H6.305v18.73h5.82v3.876L16 21.32h7.107zM30.214 0v18.09l-7.75 7.75h-5.82l-3.876 3.874H8.893V25.84H1.786V5.16L3.732 0h26.482z"/></symbol><symbol id="icon-meanpath" viewBox="0 0 27 32"><path class="path1" d="M23.41 15.036v2.036q0 .43-.24.68t-.67.25h-3.607q-.43 0-.68-.25t-.25-.68v-2.036q0-.43.25-.68t.68-.25H22.5q.43 0 .67.25t.24.68zm-8.75 4.107V14.68q0-.947-.58-1.528t-1.526-.58H10.18q-1.215 0-1.715.93-.5-.93-1.714-.93H4.43q-.946 0-1.527.58t-.58 1.527v4.463q0 .393.375.393h.982q.393 0 .393-.393v-4.107q0-.43.24-.68t.69-.25H6.68q.43 0 .68.25t.25.68v4.107q0 .393.375.393h.964q.392 0 .392-.393v-4.107q0-.43.25-.68t.68-.25H12q.43 0 .67.25t.242.68v4.107q0 .393.393.393h.982q.374 0 .374-.393zm10.52-1.714v-2.75q0-.947-.59-1.528t-1.536-.58H18.34q-.946 0-1.536.58t-.59 1.527V22q0 .375.394.375h.982q.375 0 .375-.375v-3.214q.554.75 1.68.75h3.41q.946 0 1.536-.58t.59-1.527zm2.25-11V25.57q0 1.714-1.215 2.93t-2.93 1.213H4.144q-1.714 0-2.93-1.214T0 25.573V6.43Q0 4.714 1.214 3.5t2.93-1.214h19.142q1.714 0 2.93 1.214t1.213 2.93z"/></symbol><symbol id="icon-pinterest-p" viewBox="0 0 23 32"><path class="path1" d="M0 10.66q0-1.928.67-3.633t1.848-2.973 2.714-2.196T8.536.465 12.143 0q2.82 0 5.25 1.19t3.946 3.454 1.517 5.125q0 1.713-.34 3.356t-1.07 3.16-1.786 2.67-2.588 1.84-3.375.688q-1.214 0-2.41-.57T9.57 19.34q-.18.696-.5 2.01t-.42 1.695-.366 1.268-.464 1.268-.57 1.116-.822 1.383-1.107 1.545l-.25.09-.16-.18q-.27-2.804-.27-3.357 0-1.642.385-3.687t1.188-5.134.93-3.626q-.572-1.16-.572-3.018 0-1.482.93-2.786T9.86 6.626q1.09 0 1.696.723t.607 1.83q0 1.178-.786 3.41t-.786 3.34q0 1.124.805 1.865t1.946.74q.983 0 1.822-.445t1.402-1.214 1-1.696.68-1.973.356-1.982.116-1.777q0-3.09-1.955-4.813t-5.097-1.723q-3.57 0-5.964 2.313T3.305 11.09q0 .787.223 1.52t.48 1.16.483.813.223.545q0 .5-.268 1.304t-.66.804q-.037 0-.305-.054-.91-.268-1.616-1t-1.09-1.688-.58-1.93-.195-1.9z"/></symbol><symbol id="icon-get-pocket" viewBox="0 0 31 32"><path class="path1" d="M27.946 2.286q1.16 0 1.964.813t.804 1.972v9.268q0 3.143-1.214 6t-3.26 4.91-4.892 3.26-5.973 1.205q-3.143 0-5.99-1.205T4.48 25.25t-3.268-4.91-1.214-6V5.072Q0 3.93.82 3.108t1.965-.82h25.16zm-12.57 19q.838 0 1.463-.59l7.213-6.928q.66-.625.66-1.518 0-.875-.615-1.49t-1.49-.617q-.84 0-1.465.59l-5.768 5.535-5.768-5.536q-.625-.59-1.446-.59-.874 0-1.49.617t-.616 1.49q0 .91.643 1.518l7.232 6.93q.588.588 1.445.588z"/></symbol><symbol id="icon-vimeo" viewBox="0 0 32 32"><path class="path1" d="M30.518 9.25q-.18 4.214-5.93 11.625-5.945 7.696-10.035 7.696-2.536 0-4.286-4.695-.786-2.857-2.357-8.607-1.286-4.68-2.804-4.68-.32 0-2.268 1.358l-1.375-1.75q.43-.375 1.93-1.723t2.32-2.063Q8.5 3.946 10.017 3.803q1.696-.16 2.732.99t1.445 3.635q.786 5.125 1.18 6.66.98 4.447 2.142 4.447.91 0 2.75-2.875 1.804-2.875 1.946-4.393.232-2.482-1.946-2.482-1.018 0-2.16.464 2.142-7.02 8.195-6.822 4.482.143 4.214 5.82z"/></symbol><symbol id="icon-reddit-alien" viewBox="0 0 32 32"><path class="path1" d="M32 15.107q0 1.036-.527 1.884t-1.42 1.296q.214.82.214 1.714 0 2.768-1.902 5.125t-5.188 3.723-7.143 1.366T8.9 28.848t-5.18-3.723T1.82 20q0-.84.195-1.68-.91-.445-1.464-1.312t-.553-1.902q0-1.464 1.036-2.51t2.518-1.044q1.52 0 2.59 1.125 3.893-2.714 9.196-2.893L17.406.48q.055-.232.27-.375t.463-.09l6.588 1.447q.32-.66.964-1.063t1.41-.403q1.108 0 1.894.777t.786 1.884-.786 1.893-1.893.787-1.884-.777-.778-1.884l-5.964-1.32-1.857 8.428q5.358.16 9.27 2.857 1.035-1.088 2.553-1.088 1.482 0 2.518 1.045t1.037 2.51zM7.464 18.66q0 1.108.777 1.894t1.885.786 1.893-.786.786-1.893-.786-1.883T10.125 16q-1.09 0-1.875.786t-.786 1.875zM21.93 25q.195-.196.195-.464t-.196-.464q-.18-.18-.447-.18t-.464.18q-.733.75-2.162 1.107T16 25.535t-2.856-.357-2.16-1.108q-.197-.18-.465-.18t-.447.18q-.196.18-.196.455t.196.473q.768.768 2.116 1.214t2.187.527 1.625.08 1.625-.08 2.188-.526T21.93 25zm-.055-3.66q1.107 0 1.884-.787t.776-1.893q0-1.09-.786-1.875T21.875 16q-1.107 0-1.893.776t-.786 1.884.786 1.893 1.893.786z"/></symbol><symbol id="icon-behance" viewBox="0 0 37 32"><path class="path1" d="M33 6.054h-9.125v2.214H33V6.054zm-4.5 7.607q-1.607 0-2.607.94t-1.107 2.544h7.286q-.32-3.482-3.57-3.482zm.286 10.447q1.125 0 2.18-.57t1.356-1.555h3.946q-1.786 5.482-7.625 5.482-3.82 0-6.08-2.357t-2.26-6.196q0-3.713 2.33-6.17t6.01-2.454q2.464 0 4.295 1.214t2.732 3.196.902 4.43q0 .303-.036.838h-11.75q0 1.982 1.027 3.063t2.973 1.08zm-23.84-.893h5.286q3.66 0 3.66-2.982 0-3.214-3.553-3.214H4.945v6.196zm0-9.59h5.018q1.393 0 2.205-.65t.812-2.028q0-2.57-3.393-2.57H4.945v5.25zM0 4.537h10.607q1.554 0 2.768.25t2.26.848 1.606 1.723.564 2.75q0 3.232-3.07 4.696 2.035.57 3.07 2.054T18.84 20.5q0 1.34-.438 2.438t-1.18 1.848-1.758 1.268-2.16.75-2.394.232H0v-22.5z"/></symbol><symbol id="icon-deviantart" viewBox="0 0 18 32"><path class="path1" d="M18.286 5.41l-5.41 10.394.428.554h4.982v7.41H9.232l-.786.537L5.91 29.18l-.536.536H0v-5.41l5.41-10.412-.43-.536H0v-7.41h9.053l.786-.537L12.374.537 12.91 0h5.376v5.41z"/></symbol><symbol id="icon-medium" viewBox="0 0 32 32"><path class="path1" d="M10.66 7.518v20.946q0 .446-.222.76t-.652.312q-.304 0-.59-.143l-8.303-4.16q-.375-.18-.634-.6t-.26-.83V3.448q0-.357.18-.607t.517-.25q.25 0 .786.268l9.125 4.57q.054.055.054.09zm1.144 1.803l9.536 15.465-9.536-4.75V9.32zM32 9.644v18.82q0 .447-.25.724t-.68.277-.838-.232l-7.875-3.93zM31.946 7.5q0 .054-4.58 7.49T22 23.697l-6.964-11.32 5.786-9.412q.304-.5.93-.5.25 0 .463.107l9.66 4.822q.072.036.072.107z"/></symbol><symbol id="icon-slideshare" viewBox="0 0 32 32"><path class="path1" d="M15.59 13.214q0 1.482-1.135 2.545t-2.723 1.062T9.01 15.76t-1.135-2.546q0-1.5 1.134-2.554t2.722-1.054 2.723 1.054 1.134 2.554zm8.964 0q0 1.482-1.125 2.545t-2.733 1.062q-1.59 0-2.723-1.063t-1.134-2.546q0-1.5 1.134-2.554t2.723-1.054q1.607 0 2.732 1.054t1.124 2.554zm4.017 3.215V4.517q0-1.554-.57-2.205t-1.982-.652H6.16q-1.48 0-2.008.608t-.527 2.25v12.018q.768.41 1.58.714t1.446.5 1.447.33 1.268.196 1.25.07 1.045.01 1.01-.036.794-.036q1.214-.018 1.696.482.107.107.18.16.463.447 1.088.912.125-1.625 2.107-1.554.09 0 .652.027t.768.037.813.018.946-.018.973-.08 1.09-.152 1.106-.24 1.196-.35 1.204-.48 1.286-.617zm2.912-.09q-2.16 2.66-6.643 4.5 1.5 5.088-.412 8.303-1.18 2.018-3.268 2.643-1.857.57-3.25-.268-1.536-.91-1.464-2.93l-.018-5.82v-.018q-.143-.036-.438-.107t-.42-.09l-.018 6.037q.07 2.036-1.482 2.93-1.41.838-3.268.267-2.09-.643-3.25-2.68-1.875-3.213-.393-8.267Q2.676 19 .515 16.34q-.446-.66-.07-1.125t1.07.018q.054.036.196.125t.196.143V3.11q0-1.286.84-2.196t2.035-.91H27.23q1.195 0 2.035.91t.84 2.196V15.5l.374-.267q.695-.482 1.07-.018t-.07 1.125z"/></symbol><symbol id="icon-snapchat-ghost" viewBox="0 0 30 32"><path class="path1" d="M15.143 2.286q2.393-.018 4.295 1.223t2.92 3.437q.482 1.036.482 3.196 0 .84-.16 3.41.25.126.5.126.32 0 .91-.242t.91-.24q.52 0 1 .32t.483.82q0 .572-.563.965t-1.232.563-1.232.518-.563.848q0 .268.214.768.66 1.464 1.83 2.68t2.58 1.803q.5.214 1.43.41.5.108.5.626 0 1.25-3.912 1.838-.125.196-.196.696t-.25.83-.59.33q-.357 0-1.107-.116t-1.143-.116q-.66 0-1.107.09-.57.088-1.125.4t-1.036.68-1.036.723-1.357.598-1.77.24q-.928 0-1.722-.24t-1.34-.598-1.026-.723-1.036-.68-1.107-.4q-.465-.09-1.126-.09-.43 0-1.17.134t-1.045.134q-.447 0-.626-.33t-.25-.848-.196-.714q-3.91-.59-3.91-1.84 0-.517.5-.624.928-.196 1.428-.41 1.393-.572 2.58-1.805T6.606 18q.214-.5.214-.768 0-.5-.563-.848t-1.24-.527-1.242-.563-.563-.938q0-.482.464-.813t.982-.33q.268 0 .857.232t.946.232q.322 0 .572-.125-.16-2.536-.16-3.393 0-2.18.48-3.215Q8.497 4.5 10.425 3.41t4.714-1.126z"/></symbol><symbol id="icon-yelp" viewBox="0 0 27 32"><path class="path1" d="M13.804 23.554v2.268q-.018 5.214-.107 5.446-.214.57-.91.714-.965.16-3.242-.68t-2.902-1.588q-.232-.268-.304-.643-.02-.213.07-.463.07-.18.607-.84t3.232-3.856q.017 0 1.07-1.25.268-.338.705-.437t.884.063q.428.18.67.518t.222.75zm-2.66-4.483q-.055.983-.93 1.25l-2.143.697q-4.91 1.57-5.213 1.57-.625-.035-.964-.642-.214-.446-.304-1.34-.144-1.356.017-2.972t.536-2.223 1-.57q.232 0 3.607 1.374 1.25.518 2.054.84l1.5.606q.41.16.634.545t.205.866zm14.75 5.305q-.126.964-1.635 2.875t-2.42 2.268q-.662.25-1.126-.125-.25-.18-3.286-5.125l-.84-1.375q-.25-.375-.204-.82t.348-.822q.625-.767 1.482-.463.018.018 2.125.714 3.624 1.18 4.32 1.42t.84.367q.5.393.392 1.09zm-12-11.286q.088 1.82-.965 2.178-1.037.304-2.037-1.268L4.143 3.32q-.143-.624.34-1.106.73-.768 3.704-1.598t4.01-.563q.713.18.874.804.055.32.394 5.455t.43 6.777zm11.82 1.928q.054.696-.464 1.054-.268.18-5.875 1.536-1.196.268-1.625.41l.018-.035q-.41.107-.82-.07t-.662-.572q-.536-.838 0-1.553.018-.018 1.34-1.82 2.23-3.055 2.678-3.644t.607-.696q.5-.34 1.162-.036.857.412 2.196 2.385t1.446 2.99v.055z"/></symbol><symbol id="icon-vine" viewBox="0 0 27 32"><path class="path1" d="M26.732 14.768v3.536q-1.804.41-3.536.41-1.16 2.43-2.955 4.84T17 27.402t-2.286 1.902q-1.43.804-2.893-.054-.5-.304-1.08-.777t-1.517-1.49-1.83-2.296-1.92-3.286-1.884-4.356-1.635-5.616-1.26-6.964H5.75Q6.214 8.357 7 11.58t1.866 5.66 2.17 4.206 2.5 3.482q3.018-3.018 5.125-7.25-2.535-1.286-3.98-3.93t-1.447-5.945q0-3.43 1.857-5.616T20.16 0q3.18 0 4.876 1.883t1.696 5.313q0 2.84-1.036 5.107-.125.018-.348.054t-.82.036-1.126-.107-1.107-.455-.902-.92q.554-1.838.554-3.285 0-1.554-.518-2.357t-1.412-.804q-.946 0-1.518.884t-.57 2.51q0 3.32 1.874 5.24t4.768 1.92q1.107 0 2.16-.25z"/></symbol><symbol id="icon-vk" viewBox="0 0 35 32"><path class="path1" d="M34.232 9.286q.41 1.143-2.68 5.25-.428.57-1.16 1.518-1.393 1.786-1.607 2.34-.304.73.25 1.445.304.374 1.446 1.463h.02l.07.07q2.518 2.34 3.41 3.947.055.09.117.223t.125.473-.01.607-.445.49-1.054.224l-4.57.07q-.43.09-1-.088t-.93-.394l-.357-.214q-.536-.375-1.25-1.143t-1.223-1.385-1.09-1.036-1.008-.278q-.054.018-.143.063t-.304.26-.384.526-.304.93-.116 1.384q0 .268-.063.49t-.133.33l-.07.09q-.322.34-.947.393h-2.054q-1.268.07-2.607-.295t-2.35-.946-1.838-1.18-1.26-1.026l-.445-.43q-.18-.178-.49-.535T6.498 21.3t-1.894-2.696-2.188-3.768T.088 9.98q-.107-.287-.107-.483t.055-.286l.07-.106q.27-.34 1.02-.34l4.892-.035q.214.035.41.115t.287.152l.09.054q.285.197.428.572.357.893.82 1.848t.733 1.455l.286.518q.52 1.07 1 1.857t.867 1.223.74.688.608.25.482-.088q.036-.018.09-.09t.213-.392.24-.84.17-1.445 0-2.232q-.035-.714-.16-1.304t-.25-.822l-.107-.214q-.446-.607-1.518-.768-.232-.036.09-.43.303-.338.678-.535.946-.463 4.268-.428 1.465.018 2.412.232.357.09.598.24t.366.43.188.57.063.814-.018.982-.046 1.26-.027 1.472q0 .196-.018.75t-.01.857.063.722.205.696.402.438q.143.036.304.07t.464-.195.68-.615.928-1.196 1.214-1.92q1.07-1.858 1.91-4.02.072-.178.18-.312t.196-.188l.07-.054.09-.045.232-.053.357-.01 5.143-.035q.696-.09 1.143.045t.555.295z"/></symbol></defs></svg>